<?xml version="1.0" encoding="utf-8"?>
<!-- Generator: Adobe Illustrator 22.1.0, SVG Export Plug-In . SVG Version: 6.00 Build 0)  -->
<svg version="1.1" id="_x33_" xmlns="http://www.w3.org/2000/svg" xmlns:xlink="http://www.w3.org/1999/xlink" x="0px" y="0px"
	 viewBox="0 0 850 815" style="enable-background:new 0 0 850 815;" xml:space="preserve">
<style type="text/css">
	.st0{fill:#FFFFFF;}
	.st1{fill:#F08834;}
	.st2{fill:#FFA466;}
	.st3{fill:#4C251D;}
	.st4{fill:#F4CD9A;}
	.st5{fill:#A88C82;}
	.st6{fill:#4D251D;}
	.st7{fill:#4D261E;}
</style>
<g>
	<path class="st0" d="M799.523,626.07c1.114-4.094,1.705-9.333-0.643-13.438c-1.174-2.053-2.929-3.63-4.995-4.564
		c-1.568-0.842-3.337-1.296-5.165-1.296c-7.528,0-13.417,7.874-16.238,12.536c-2.686,4.401-5.339,7.84-7.844,10.181
		c-1.114,1.03-2.311,1.941-3.716,2.811c-0.667,0.43-1.236,0.662-2.416,1.049c-1.057,0.284-2.129,0.429-3.19,0.429
		c-2.425,0-4.072-0.754-4.794-1.304c-0.056-0.162-0.16-0.463-0.024-1.238c0.241-1.369,1.303-4.485,5.717-9.995
		c1.376-1.727,2.791-3.339,4.203-4.952l1.907-2.191c2.572-2.983,4.505-5.318,6.274-7.579c3.547-4.542,7.682-10.172,11.456-17.498
		c2.015-3.929,3.606-7.754,4.849-11.655c0.584-1.801,1.38-4.591,1.839-7.491c0.439-2.484,0.714-5.087,0.844-7.958
		c0.25-5.516-0.084-11.209-1.016-17.039c-0.981-5.704-2.475-12.524-6.115-19.882c-1.452-3.059-4.424-7.275-8.453-10.055
		c-1.394-0.974-3.307-2.071-5.521-2.704c-0.114-0.224-0.232-0.443-0.354-0.657c-2.784-5.077-7.083-7.988-11.796-7.988
		c-1.558,0-3.075,0.332-4.458,0.956c-3.244,1.144-6.462,4.071-7.647,10.864L742.125,516c-0.209,1.312-0.521,2.746-0.783,3.966
		l-0.254,1.197c-0.404,1.931-1.554,3.648-3.54,5.268c-1.924,1.578-4.328,2.886-7.464,4.078c-3.091,1.135-6.183,1.735-8.942,1.735
		c-1.208,0-2.331-0.112-3.35-0.337c-2.576-0.564-3.171-1.689-3.428-2.174c-0.86-1.65-0.949-4.462-0.243-7.5
		c0.447-1.905,1.135-3.776,2.036-5.544c0.895-1.75,2.026-3.615,3.568-5.88c1.258-1.854,2.592-3.674,3.974-5.562
		c1.985-2.711,4.036-5.514,6.157-8.743c5.114-7.688,8.592-15.947,10.336-24.555c2.47-12.237,1.609-24.577-2.548-36.648
		c-0.504-1.478-1.231-3.05-2.287-4.945c-0.067-0.12-0.136-0.238-0.208-0.355c-0.938-1.53-2.087-3.079-3.321-4.48
		c-0.126-0.143-0.256-0.282-0.389-0.417c-0.892-0.901-1.781-1.676-2.676-2.328c-1.517-2.202-3.269-4.05-5.221-5.509
		c-3.176-2.385-6.032-3.975-8.722-4.831c-0.814-1.525-1.767-2.856-2.798-3.905c-2.966-3.112-6.176-3.765-8.347-3.765
		c-1.206,0-2.384,0.202-3.498,0.59c-3.081,0.839-6.221,3.164-7.779,7.808c-0.422,1.335-0.633,2.618-0.836,3.859
		c0,0-0.165,0.989-0.178,1.088c-0.293,2.066-0.79,4.589-1.189,6.616l-0.118,0.613c-0.854,3.932-2.952,7.531-5.733,9.857
		c-2.288,1.901-4.825,2.948-7.755,3.13c-0.387,0.033-0.771,0.047-1.15,0.047c-2.081,0-4.314-0.46-6.449-1.289
		c-2.152-0.891-4.013-2.126-5.565-3.706c-1.2-1.211-2.145-2.719-2.883-4.597c-0.73-1.865-1.152-3.896-1.29-6.174
		c-0.287-5.056,0.792-10.801,3.191-17.044c2.389-6.145,5.549-11.416,8.894-16.995l2.271-3.785
		c3.543-5.877,7.206-11.954,10.608-19.478c2.343-5.268,3.952-9.955,5.031-14.616c1.441-5.848,2.062-12.124,1.843-18.694
		c-0.604-16.005-6.151-31.16-16.044-43.84c-1.296-1.744-2.849-3.213-4.365-4.646c-0.086-0.081-0.173-0.16-0.261-0.238
		c-1.864-1.641-3.81-2.928-5.297-3.865c-0.2-0.125-0.404-0.244-0.612-0.356c-0.694-0.371-1.365-0.701-2.016-0.992
		c-1.269-1.537-2.415-2.85-3.352-3.892c-0.434-4.715-1.901-10.17-4.887-13.515c-2.214-2.48-5.175-3.846-8.338-3.846
		c-0.377,0-0.754,0.021-1.128,0.06c-10.553,0.309-12.468,13.311-13.394,19.599c-0.016,0.111-0.031,0.222-0.043,0.333
		c-1.137,10.084-5.132,16.299-8.395,18.687c-2.983,2.126-6.037,2.445-7.592,2.445c-0.877,0-1.722-0.097-2.36-0.257
		c-1.937-0.507-2.446-1.2-2.909-2.64c-0.986-3.086-0.433-8.724,0.229-13.775c1.169-8.528,1.647-15.984,1.461-22.806
		c-0.239-8.392-1.286-15.64-3.309-22.864c-0.578-2.019-1.251-4.077-1.999-6.118c-0.07-0.189-0.145-0.377-0.226-0.562l-1.315-3.007
		c-0.111-0.255-0.233-0.505-0.366-0.749c0,0-1.634-3.009-1.69-3.104c-2.239-3.815-4.921-7.66-8.477-12.15
		c-3.288-4.096-6.877-8.116-11.005-12.316c-3.569-3.602-8.485-8.356-14.906-13.223c-1.432-1.134-3.14-2.205-4.956-3.111
		c-2.251-1.195-4.478-1.926-6.03-2.349c-1.823-0.484-3.58-0.73-5.22-0.73c-0.834,0-1.609,0.064-2.329,0.177
		c-0.068-0.042-0.135-0.084-0.202-0.125c-2.219-3.947-6.869-7.517-12.502-7.517c-1.555,0-3.093,0.291-4.524,0.851
		c-2.877,0.926-5.32,2.885-6.983,5.63c-2.101,3.469-2.746,7.866-1.709,11.54c2.325,8.725,2.69,13.037,2.746,15.665
		c0.018,3.227-0.28,5.012-1.213,7.212c-0.925,1.878-1.709,2.411-2.429,2.804c-0.004,0.001-0.306,0.114-0.998,0.136
		c-0.504-0.029-0.821-0.111-0.956-0.161c-1.587-1.451-3.625-2.487-6.077-3.126c-1.513-0.422-2.93-0.628-4.328-0.628
		c-0.891,0-1.759,0.084-2.6,0.25c-1.442-3.882-5.161-6.457-9.287-6.457c-0.414,0-0.832,0.026-1.252,0.079
		c-1.937,0.245-3.684,1.038-5.095,2.211c-0.25-0.016-0.498-0.025-0.746-0.025c-2.453,0-4.764,0.801-6.632,2.216
		c0.259-1.154,0.559-2.287,0.842-3.325l0.646-2.294c1.339-4.717,2.857-10.062,3.353-16.008c0.635-7.207,0.078-14.315-1.735-21.861
		c-1.815-7.122-4.584-13.61-8.52-19.916c-3.984-6.247-8.541-11.369-13.851-15.592c-6.078-4.942-13.264-8.407-20.044-11.505
		l-0.907-0.422c-2.979-1.381-6.059-2.81-8.861-4.454c-3.414-2.038-5.817-4.001-7.509-6.11c-1.024-1.3-2.51-2.969-4.515-5.066
		c-0.667-0.676-1.632-1.658-2.898-2.572c-2.181-6.671-7.242-10.073-12.296-10.597c-1.702-0.954-3.678-1.482-5.776-1.482
		c-6.067,0-12.223,4.277-15.03,7.273c-8.336,8.478-14.061,17.465-16.991,26.631c-2.905,8.811-3.145,18-0.663,26.69
		c2.173,7.269,5.54,12.705,8.853,17.494c1.262,1.825,2.574,3.59,3.898,5.367c1.762,2.363,3.427,4.597,4.943,6.963
		c2.213,3.473,3.464,6.306,3.851,8.825c0.062,0.366,0.085,0.847,0.096,1.258c-0.005,0.196-0.022,0.346-0.048,0.478
		c-0.073,0.348-0.199,0.709-0.387,1.088c-0.8-0.547-2.023-1.465-3.88-3.007l-2.66-2.126c-1.395-1.1-2.981-2.177-4.473-3.037
		c-3.775-2.171-7.538-3.541-11.502-4.189c-1.017-0.182-2.096-0.274-3.207-0.274c-2.161,0-7.474,0.392-11.83,3.758
		c-0.853-0.17-1.747-0.27-2.67-0.27c-3.175,0-6.113,1.208-8.253,3.32c-1.754,1.52-3.023,3.555-3.654,5.905
		c-1.738,6.476,2.078,13.102,2.545,13.879c2.741,4.515,3.334,7.689,3.252,8.852c-0.02,0.281-0.06,0.465-0.091,0.571
		c-0.184,0.088-0.637,0.238-1.403,0.275l-0.268,0.008c-0.604,0-1.513-0.109-2.22-0.512c-0.866-0.523-1.757-1.519-2.43-2.708
		c-0.868-1.541-1.462-3.273-1.867-5.432c-0.669-3.6-1.01-9.924,3.673-23.07c1.33-3.564,1.775-9.027-0.047-13.429
		c0.625-1.352,1.196-2.462,1.67-3.385c0.105-0.205,0.208-0.405,0.308-0.601c3.217-2.247,6.005-5.173,6.531-9.454
		c0.199-1.614,0.033-3.208-0.465-4.691c-0.365-1.409-1.023-2.744-1.954-3.923c-3.588-4.538-9.321-4.538-11.205-4.538
		c-4.356,0-10.342,1.035-14.366,2.453c-16.976,5.585-30.271,11.934-40.514,19.321c-10.196,7.107-18.297,15.873-24.095,26.082
		c-4.777,8.471-7.696,17.745-8.923,28.335c-1.123,9.513-0.88,18.963-0.449,27.777l0.099,1.924
		c0.425,8.295,0.793,15.459,0.537,22.004c-0.322,7.84-1.318,13.68-3.169,18.774c-2.679,6.991-6.471,11.961-11.46,15.111
		c-1.707,1.041-4.298,2.281-6.951,2.281c-0.377,0-0.75-0.026-1.255-0.097c-2.714-0.345-6.414-2.085-8.541-5.169
		c-1.083-1.58-2.073-3.391-2.545-4.652c-0.194-0.576-0.411-1.14-0.625-1.678l-0.008-0.02c-0.272-0.895-0.59-1.731-0.956-2.505
		c-1.794-3.775-4.959-6.207-8.647-6.722c-0.068-0.015-0.136-0.029-0.205-0.042c-2.005-2.49-5.229-4.337-9.586-4.337
		c-1.145,0-2.366,0.127-3.802,0.414c-3.345,0.724-6.952,2.402-9.468,4.396c-7.744,5.904-14.027,12.951-19.29,21.677
		c-3.747,6.448-6.362,12.84-7.981,19.491c-1.429,5.739-2.101,11.259-2.112,17.423c0.022,6.326,0.745,12.107,2.272,18.173
		c1.772,7.107,4.578,12.995,6.479,16.695c1.589,3.193,3.091,6.208,3.39,8.398c0.036,0.243,0.071,0.473-0.108,1.152
		c-0.166,0.464-0.477,1.093-1.053,1.684c-0.461,0.474-0.951,0.763-1.436,0.852c-0.109,0.019-0.292,0.043-0.544,0.043
		c-0.45,0-1.344-0.081-2.268-0.616c-0.588-0.342-1.236-0.683-1.928-1.027c-0.952-2.635-2.642-4.525-4.543-5.744
		c-1.898-1.409-4.219-2.182-6.678-2.182c-2.931,0-5.887,1.103-8.854,3.331c-2.782,2.126-5.369,5.305-6.793,8.333
		c-4.456,9.02-6.739,18.508-6.98,29.087c-0.104,7.378,0.949,14.42,3.229,21.555c1.431,4.438,3.417,8.81,6.012,13.246
		c-2.519-1.265-5.036-1.591-6.175-1.738c-0.212-0.027-0.423-0.048-0.636-0.061c-0.482-0.031-0.979-0.047-1.486-0.047
		c-1.316,0-2.741,0.1-4.486,0.314c-0.253,0.032-0.504,0.072-0.753,0.122c-1.763,0.356-3.588,0.9-5.425,1.62
		c-0.116,0.045-0.229,0.092-0.342,0.141c-6.942,3.021-13.094,7.628-18.316,13.725c-4.172,4.918-7.37,10.461-9.485,16.422
		c-3.592,9.936-3.644,21.308-0.189,31.061c2.215,6.559,5.08,11.709,7.607,16.254l1.59,2.876c2.423,4.383,4.712,8.522,5.711,12.813
		c0.34,1.413,0.432,2.87,0.25,3.989c-0.174,1.069-0.477,1.934-0.898,2.573c-0.052,0.078-0.102,0.157-0.152,0.237
		c-1.33,2.143-3.482,3.879-6.232,5.028c-1.351,0.488-2.633,0.735-3.809,0.735c-1.365,0-2.527-0.33-3.688-1.057
		c-0.801-0.498-2.318-1.701-3.554-4.324c-1.161-2.358-1.606-5.185-1.213-7.796l0.866-5.942c0.578-3.543,0.329-6.288-0.373-8.414
		c0.682-2.508,1.004-4.826,0.965-6.947c1.133-2.21,1.892-4.829,1.462-7.742c-0.229-1.549-0.789-3.018-1.621-4.312
		c-1.918-3.495-5.707-5.724-10.193-5.724c-5.197,0-11.943,3.118-15.742,6.092c-9.332,6.997-17.451,14.913-24.846,24.234
		c-2.104,2.674-3.876,5.3-5.441,7.615c-0.69,1.021-1.361,2.017-2.037,2.977c-0.124,0.177-0.242,0.357-0.354,0.541
		c-1.506,2.467-2.791,4.783-4.034,7.023c-0.494,0.891-0.979,1.766-1.466,2.624c-0.106,0.188-0.206,0.38-0.301,0.575
		c-1.091,2.26-2.079,4.473-3.045,6.639c0,0-1.174,2.623-1.209,2.705c-0.937,2.231-1.672,4.374-2.383,6.445
		c-0.322,0.938-0.643,1.877-0.983,2.814c-0.047,0.131-0.092,0.263-0.134,0.395c-2.285,7.236-3.875,13.895-5.004,20.972
		c-1.182,7.49-1.755,14.253-1.802,21.26c-0.141,2.843,0.019,5.443,0.173,7.959c0.044,0.717,0.198,3.339,0.221,3.803
		c0.06,1.182,0.129,2.521,0.337,4.022c0,0,0.866,6.085,0.936,6.598c0.188,1.356,0.386,2.735,0.717,4.298l1.21,5.265
		c0.706,3.545,1.843,7.017,2.944,10.377c0,0,0.911,2.797,0.966,2.946c3.288,8.794,7.738,19.346,15.821,30.936
		c0.079,0.113,8.024,11.33,16.922,11.33c1.622,0,3.181-0.347,4.589-0.99c1.689,1.233,3.735,1.907,5.848,1.907h63.401
		c0.136,0.005,0.273,0.009,0.41,0.009l635.68-0.009c0.043,0.043,0.086,0.087,0.13,0.13c2.321,2.629,5.679,4.105,9.464,4.105
		c0.001,0,0.001,0,0.001,0c3.918,0,8.041-1.626,10.717-4.202c8.711-8.284,12.952-14.877,16.244-20.405
		c0.053-0.091,0.105-0.182,0.157-0.274c3.253-5.881,5.226-10.663,7.355-16.471c0.031-0.084,0.061-0.17,0.089-0.255
		c1.968-5.858,3.417-10.821,4.558-17.452c0.018-0.105,0.034-0.211,0.049-0.316c0.887-6.374,1.695-14.172,0.085-26.014
		C800.88,629.395,800.36,627.709,799.523,626.07z M139.456,482.371c-0.256-0.035-0.55-0.133-0.938-0.466
		c-0.639-0.559-1.413-1.647-1.695-3.154c-0.302-1.504-0.748-3.261-1.069-4.472c1.76-2.455,2.276-5.005,2.139-7.24
		c0.945,1.469,1.853,2.935,2.713,4.465c2.196,3.895,2.703,6.035,2.742,7.144c0.004,0.129,0.012,0.257,0.02,0.386
		c0,0-0.03,0.402-0.038,0.508c-0.033,0.178-0.115,0.62-0.12,0.637c-0.022,0.066-0.117,0.309-0.476,0.708
		C142.286,481.39,141.064,482.328,139.456,482.371z"/>
	<g>
		<path class="st1" d="M756.466,702.153H52.737c0,0-88.46-84.501,10.676-173.945c2.456-1.966,4.286-2.785,5.568-2.785
			c3.769,0,2.677,7.426-1.665,15.426c-5.843,10.703-2.921,27.221,16.519,34.019c19.439,6.797,35.002-13.597,29.158-25.256
			c-2.621-5.215-10.647-18.184-14.496-32.408c-4.778-17.61-3.114-37.186,23.233-46.332c0,8.737,2.922,29.159,19.441,27.221
			c12.695-1.503,20.23-11.004,19.521-20.205c-0.191-2.757-1.175-5.515-2.976-7.999c-7.781-10.676-35.002-41.8-14.579-70.96
			c11.658,9.72,32.08,5.844,33.037-6.799c0.982-12.64-35.002-73.853,19.439-96.214c8.765-5.844,5.843,5.816,8.765,13.596
			c1.774,4.752,7.89,10.212,17.283,10.895c5.951,0.409,13.268-1.12,21.594-6.035c12.86-7.617,17.638-18.019,18.977-28.695
			c0.873-7.098,0.245-14.306-0.519-20.886c-1.937-16.519-21.378-89.417,67.082-107.873c9.72-0.983,5.816-0.983,0.957,11.657
			c-4.86,12.641-12.642,39.862,0,55.397c12.64,15.563,29.159,3.905,29.159-7.782c0-11.658-3.877-23.316-3.877-23.316
			s5.816-3.877,17.5,0.983c11.659,4.86,9.72,14.579,23.318,8.737c13.596-5.844,13.596-25.283,1.938-36.941
			c-11.659-11.658-22.361-30.115,0-59.301c9.72-12.614,14.581-6.798,14.581,0.983c0,7.781,21.377,21.378,33.063,26.238
			c11.659,4.86,25.255,19.439,28.176,33.063c2.921,13.597,2.921,24.3-1.938,36.941c-4.86,12.613,0.955,25.254,11.657,26.238
			c10.704,0.955,15.564-9.721,15.564-14.581v-0.9c0.274,1.064,2.265,11.331,16.517,14.498c17.501,3.905,28.176-4.86,28.176-18.458
			c0-13.187-4.56-26.373-4.832-27.193c1.119,0.628,25.666,14.908,42.755,30.115c17.502,15.535,15.536,38.879,14.581,52.476
			c-0.655,9.119-3.059,22.225,0.136,32.19c1.555,4.86,4.477,9.01,9.583,11.548c15.536,7.782,32.08-7.78,32.08-7.78l11.659-23.316
			c0,0,11.658,11.657,18.457,26.238c6.826,14.579,9.72,28.203,5.842,45.677c-3.877,17.501-15.563,26.266-22.362,38.879
			c-6.797,12.642-12.64,37.925,0,51.52c12.642,13.624,25.283,17.501,35.96,11.659c10.702-5.815,20.42-12.614,19.438-22.333
			c-0.955-9.721,2.923-10.703,10.704-4.86c7.781,5.814,9.719,22.334,6.798,42.756c-2.921,20.423-10.677,31.098-20.396,42.784
			c-9.719,11.658-7.781,22.334,5.816,32.053c1.009,0.738,2.102,1.338,3.221,1.857c13.924,6.525,35.22-1.83,41.499-13.516
			c6.799-12.641,10.674-9.719,16.518,13.625c5.844,23.316,4.861,30.115-8.736,47.616c-13.625,17.5-29.159,29.159-26.266,43.738
			c0.656,3.331,1.638,6.089,2.895,8.328c4.285,7.59,11.903,9.038,22.388,5.297c13.597-4.859,24.3-18.485,24.3-18.485
			S800.204,671.055,756.466,702.153z"/>
		<path class="st2" d="M716.046,657.904c0,0-1.517,19.209-12.109,44.258H116.549c-13.712-21.7-22.244-47.951-15.287-71.197
			c15.861,11.108,63.383,11.108,53.877-20.612c-9.531-31.663-7.93-72.857-7.93-77.609c25.251,16.805,46.779-28.456,44.774-55.538
			c-0.257-3.522-0.915-6.728-2.003-9.448c-9.506-23.76,3.177-38.018,3.177-38.018s30.117,31.691,41.196,7.93
			c11.077-23.79-23.762-58.629-14.258-85.568c9.506,14.256,42.256,39.564,57.056,20.583c10.163-13.055,3.349-54.564,8.903-86.484
			c2.547-14.515,7.614-26.997,18.036-33.953c-3.177,25.365,39.62,57.084,61.78,36.472c22.186-20.584,17.463-39.621,17.463-39.621
			s22.157,12.682,23.732,30.117c1.602,17.405,17.434-41.196,14.256-50.701c-3.177-9.505,36.445,14.257,36.445,38.018
			c0,23.762,36.441,11.08,36.441-1.575c4.754-9.532,33.296,28.514,30.119,45.947c6.354,11.079,22.186-30.116,22.186-30.116
			s13.196,3.521,17.319,19.724c1.402,5.526,1.746,12.568,0.115,21.471c-6.357,34.869-4.781,64.957,15.83,64.957
			c20.613,0,28.513-31.662,28.513-31.662s12.711,34.841,0,58.601c-12.653,23.79-3.177,90.322,22.186,90.322
			c25.365,0,31.72-14.258,31.72-14.258s4.753,26.94-6.355,50.729c-11.108,23.732-1.575,55.424,19.008,49.096
			c20.584-6.326,25.365-19.037,25.365-19.037s6.356,22.216-4.781,42.799c-11.077,20.612-26.91,45.947-12.653,49.126
			C697.037,665.833,716.046,657.904,716.046,657.904z"/>
		<path class="st3" d="M61.134,524.671c-10.303,7.71-17.524,15.481-23.092,22.499c-2.775,3.528-4.955,7.031-7.162,10.168
			c-1.997,3.272-3.666,6.419-5.335,9.366c-1.471,3.048-2.743,6.005-4.041,8.874c-1.22,2.902-2.12,5.861-3.186,8.799
			c-1.881,5.954-3.492,12.185-4.664,19.531c-1.159,7.342-1.651,13.756-1.682,20.003c-0.176,3.125,0.131,6.199,0.286,9.341
			c0.118,1.568,0.126,3.164,0.349,4.767c0.226,1.604,0.456,3.237,0.692,4.912c0.264,1.67,0.437,3.4,0.807,5.151
			c0.401,1.746,0.815,3.545,1.244,5.414c0.735,3.767,2.132,7.646,3.499,11.92c3.136,8.388,7.29,18.158,14.659,28.726
			c2.505,3.582,8.596,8.733,9.69,6.589c2.245-0.639-0.687-7.689-2.887-11.021c-6.302-10.261-9.679-19.497-12.292-27.348
			c-1.104-4.004-2.299-7.607-2.88-11.105c-0.36-1.729-0.707-3.396-1.045-5.011c-0.314-1.619-0.441-3.219-0.668-4.76
			c-0.208-1.544-0.408-3.05-0.607-4.528c-0.201-1.478-0.195-2.948-0.305-4.393c-0.138-2.893-0.45-5.725-0.294-8.605
			c-0.009-5.754,0.395-11.672,1.463-18.439c1.08-6.772,2.618-12.498,4.378-17.965c1.005-2.693,1.833-5.415,2.956-8.081
			c1.185-2.64,2.394-5.337,3.669-8.178c1.512-2.718,2.99-5.642,4.751-8.699c1.971-2.928,3.859-6.221,6.303-9.583
			c4.909-6.69,11.24-14.215,20.429-21.972c3.056-2.589,8.178-8.19,6.264-9.503C72.076,519.143,64.559,521.942,61.134,524.671z"/>
		<path class="st3" d="M116.063,466.35c-6.26,2.724-11.066,6.791-14.711,11.047c-3.642,4.292-6.124,8.879-7.72,13.376
			c-3.243,8.967-2.458,17.913-0.12,24.515c2.268,6.715,5.366,11.817,8.16,16.923c2.79,5.054,5.648,10.09,6.994,15.868
			c0.686,2.845,0.772,5.599,0.398,7.909c-0.376,2.307-1.13,4.507-2.413,6.449c-2.44,3.93-6.276,7.092-11.057,9.041
			c-4.783,1.779-10.768,2.346-16.334-1.141c-2.77-1.72-5.415-4.532-7.217-8.367c-1.855-3.768-2.883-8.595-2.129-13.61
			c0.246-1.692,0.597-4.087,0.891-6.106c0.328-2.011,0.521-3.884-0.603-4.215c-0.537-1.052-2.388-0.381-4.33,1.472
			c-1.912,1.845-3.493,4.959-3.929,7.305c-1.474,6.94-0.431,13.464,1.841,18.836c2.228,5.421,5.837,9.799,10.101,12.719
			c4.251,2.954,9.061,4.337,13.425,4.544c4.392,0.219,8.384-0.592,11.917-1.875c6.99-2.752,12.426-7.217,16.156-13.242
			c3.816-5.967,5.123-14.212,3.189-21.949c-1.879-7.852-5.158-13.404-7.937-18.598c-2.807-5.159-5.596-9.927-7.438-15.246
			c-0.913-2.69-1.613-5.37-1.681-8.38c-0.118-3,0.157-6.326,1.289-9.813c1.086-3.484,2.855-7.169,5.564-10.713
			c2.708-3.513,6.346-6.959,11.104-9.38c0.827-0.338,1.76-0.887,2.729-1.479c0.999-0.482,2.008-1.117,2.922-1.713
			c1.843-1.018,3.324-2.269,2.782-3.279c0.372-1.151-1.35-1.909-3.944-2.243c-1.267-0.081-2.709,0.04-4.129,0.214
			C118.454,465.495,117.134,465.931,116.063,466.35z"/>
		<path class="st3" d="M138.093,397.304c-4.587,9.239-5.844,17.784-6.006,24.937c-0.102,7.204,1.09,13.175,2.751,18.371
			c1.671,5.18,4.074,9.713,6.62,13.716c2.518,4.032,5.296,7.872,7.788,12.305c2.492,4.419,3.895,8.243,4.014,11.672
			c0.105,0.869-0.046,1.692-0.069,2.532c-0.198,0.787-0.252,1.72-0.547,2.403c-0.476,1.467-1.304,2.912-2.505,4.246
			c-2.349,2.636-6.416,4.966-11.153,4.798c-2.313-0.147-4.725-0.963-7.002-2.918c-2.219-1.944-4.199-4.991-4.886-8.665
			c-0.247-1.231-0.673-2.937-1.1-4.508c-0.464-1.546-0.9-3.038-2.055-3.117c-0.842-0.746-2.355,0.108-3.483,2.026
			c-1.156,1.878-1.711,4.739-1.408,6.676c0.628,5.793,3.24,10.639,6.714,14.151c1.768,1.741,3.772,3.134,5.885,4.159
			c2.137,1.01,4.363,1.55,6.494,1.823c8.636,0.701,15.202-2.949,19.522-7.502c2.17-2.331,3.796-5.052,4.752-7.988
			c0.547-1.486,0.681-2.875,0.963-4.317c0.095-1.444,0.257-2.9,0.112-4.329c-0.299-5.805-2.545-11.025-5.388-16.109
			c-2.891-5.117-5.637-8.969-7.954-12.764c-2.348-3.779-4.136-7.236-5.608-11.52c-1.424-4.252-2.578-9.162-2.794-15.221
			c-0.155-6.019,0.424-13.318,3.733-21.495c0.56-1.367,1.109-3.412,1.332-5.217c0.241-1.783,0.071-3.413-1.016-3.716
			c-0.708-0.919-2.216-0.386-3.833,0.828C140.377,393.776,138.81,395.731,138.093,397.304z"/>
		<path class="st3" d="M186.7,293.151c-8.049,6.117-13.177,12.807-16.818,18.841c-3.556,6.12-5.663,11.693-6.932,16.905
			c-1.298,5.211-1.809,10.041-1.819,14.992c0.017,4.951,0.53,10.058,1.977,15.807c1.422,5.7,3.661,10.637,5.734,14.674
			c2.017,4.051,3.822,7.686,4.32,11.348c0.279,1.858,0.138,3.538-0.427,5.521c-0.618,1.922-1.718,3.946-3.431,5.702
			c-1.709,1.757-3.985,3.183-6.773,3.695c-2.791,0.508-6.339,0.118-9.566-1.753c-1.076-0.625-2.689-1.368-4.182-2.038
			c-1.49-0.628-2.909-1.219-3.699-0.368c-1.106,0.193-1.402,1.896-0.652,3.964c0.708,2.061,2.527,4.252,4.167,5.286
			c4.754,3.258,10.199,4.396,15.153,3.867c5.026-0.554,9.243-2.892,12.238-5.676c6.07-5.582,8.181-13.215,7.32-19.483
			c-0.828-6.202-3.308-10.595-5.317-14.674c-2.111-4.062-3.801-7.714-5.043-12.571c-1.207-4.795-1.593-9.101-1.572-13.268
			c0.041-4.17,0.487-8.238,1.516-12.636c0.999-4.404,2.637-9.167,5.417-14.568c2.867-5.325,6.901-11.389,13.514-17.273
			c1.117-0.979,2.515-2.579,3.484-4.131c0.984-1.509,1.516-3.043,0.655-3.779c-0.257-1.126-1.847-1.292-3.802-0.905
			C190.241,291.045,188.018,292.08,186.7,293.151z"/>
		<path class="st3" d="M324.259,153.559c-15.698,5.164-28.246,11.046-37.941,18.036c-9.791,6.824-16.561,14.774-21.127,22.816
			c-4.57,8.104-6.759,16.395-7.713,24.627c-0.977,8.274-0.855,16.674-0.394,26.109c0.48,9.417,0.935,17.31,0.64,24.84
			c-0.308,7.476-1.201,14.721-3.817,21.917c-2.694,7.028-7.299,14.816-15.56,20.03c-4.096,2.497-9.253,4.318-14.62,3.554
			c-5.418-0.689-11.645-3.854-15.472-9.402c-1.271-1.854-2.837-4.516-3.731-6.998c-0.199-0.615-0.453-1.21-0.663-1.757
			c-0.149-0.544-0.322-1.039-0.517-1.451c-0.391-0.824-0.859-1.323-1.427-1.117c-0.499-0.408-1.053-0.136-1.632,0.715
			c-0.288,0.424-0.581,0.99-0.868,1.675c-0.224,0.686-0.372,1.491-0.521,2.38c-0.551,3.565,0.73,8.245,2.521,10.929
			c5.162,8.133,13.116,12.567,20.929,13.961c3.902,0.704,8.023,0.439,11.439-0.376c3.497-0.835,6.658-2.195,9.473-3.79
			c5.644-3.233,9.766-7.465,13.029-11.684c3.19-4.292,5.502-8.683,7.19-13.057c3.275-8.811,4.171-16.991,4.488-25.167
			c0.278-8.185-0.27-16.423-0.736-25.687c-0.456-9.241-0.483-17.042,0.42-24.383c0.897-7.342,2.747-14.126,6.489-20.909
			c7.342-13.566,22.782-26.975,52.819-38.153c5.017-1.89,13.907-6.492,12.12-8.216C339.659,150.55,329.542,151.701,324.259,153.559z
			"/>
		<path class="st3" d="M350.52,198.572c3.504,5.771,4.931,10.983,4.668,14.7c-0.26,3.683-1.876,6.184-3.786,7.633
			c-1.937,1.52-4.433,2.291-7.063,2.418c-2.624,0.143-5.515-0.403-8.158-1.919c-2.573-1.555-4.563-3.894-5.945-6.334
			c-1.403-2.494-2.368-5.256-2.975-8.485c-1.197-6.449-0.714-14.746,4.133-28.348c0.842-2.255,0.915-7.089-1.303-7.425
			c-1.778-1.366-5.224,2.048-6.225,4.385c-3.167,6.798-5.313,12.857-6.35,18.361c-1.072,5.474-1.041,10.457-0.336,14.76
			c0.729,4.337,2.062,8.199,4.178,11.871c2.182,3.655,5.009,7.123,9.679,9.973c4.702,2.682,9.297,3.549,13.727,3.4
			c4.401-0.191,8.942-1.388,13.033-4.675c4.118-3.242,7.114-8.875,7.052-15.444c-0.076-6.544-2.899-13.12-7.639-19.466
			c-1.543-2.279-6.077-4.665-7.287-2.738C347.987,192.313,349.379,196.672,350.52,198.572z"/>
		<path class="st3" d="M395.248,101.817c-7.456,7.557-12.326,15.314-14.746,22.885c-2.491,7.555-2.279,14.794-0.579,20.744
			c1.778,5.947,4.604,10.497,7.507,14.695c2.917,4.219,6.133,8.094,9.049,12.64c2.904,4.558,4.671,8.624,5.263,12.488
			c0.164,0.966,0.218,1.918,0.239,2.865c-0.004,0.872-0.084,1.694-0.26,2.573c-0.363,1.734-1.089,3.506-2.153,5.111
			c-1.044,1.626-2.525,2.978-4.147,3.836c-1.664,0.756-3.35,1.057-5.645,0.278c-2.28-0.755-4.978-2.731-8.214-5.424
			c-0.855-0.681-1.728-1.38-2.623-2.095c-0.914-0.721-2.115-1.558-3.272-2.224c-2.37-1.363-5.045-2.503-8.244-3.012
			c-2.106-0.4-5.632,0.085-7.698,1.903c-2.092,1.77-2.28,3.731-1.241,4.148c0.518,1.025,2.115,0.795,3.473,1.036
			c1.365,0.158,2.818,0.665,4.033,0.904c1.79,0.422,3.594,1.3,5.142,2.353c0.805,0.551,1.431,1.042,2.208,1.735
			c0.786,0.711,1.552,1.407,2.302,2.086c3.073,2.825,6.352,5.852,10.705,7.624c2.17,0.882,4.505,1.315,6.857,1.281
			c2.333-0.086,4.526-0.638,6.441-1.484c3.775-1.782,6.477-4.401,8.365-7.168c1.902-2.781,3.134-5.743,3.782-8.827
			c0.315-1.538,0.469-3.147,0.46-4.712c-0.03-1.484-0.14-2.963-0.39-4.407c-0.958-5.825-3.487-11.083-6.818-16.329
			c-3.388-5.255-6.576-9.151-9.181-13.005c-2.628-3.832-4.807-7.548-6.128-11.764c-1.218-4.194-1.604-9.115,0.025-15.074
			c1.578-5.937,5.199-12.84,11.466-20.169c2.053-2.45,5.257-7.795,3.289-8.934C403.682,96.191,397.689,99.121,395.248,101.817z"/>
		<path class="st3" d="M487.878,224.203c-0.868,1.477-2.101,2.271-3.231,2.407c-1.35,0.249-2.798-0.064-4.137-0.739
			c-1.337-0.671-2.521-1.696-3.384-2.811c-0.453-0.551-0.771-1.142-1.079-1.721c-0.301-0.648-0.566-1.3-0.766-1.978
			c-0.807-2.706-0.835-5.613-0.523-8.371c0.309-2.755,0.975-5.409,1.699-8.065c1.458-5.261,3.184-10.611,3.677-16.523
			c0.512-5.814,0.142-11.847-1.466-18.542c-1.7-6.674-4.21-12.126-7.271-17.031c-3.107-4.873-6.784-9.283-11.745-13.229
			c-4.972-4.042-11.1-7.068-17.969-10.207c-3.417-1.589-7.08-3.245-10.671-5.353c-3.568-2.129-7.272-4.817-10.216-8.489
			c-0.979-1.243-2.467-2.859-3.791-4.243c-1.332-1.353-2.572-2.519-3.555-1.873c-1.131-0.18-1.847,1.544-1.692,3.954
			c0.126,2.394,1.246,5.279,2.491,6.963c3.581,5.119,7.888,8.581,11.925,11.325c4.095,2.718,7.881,4.636,11.266,6.399
			c6.778,3.448,11.919,6.236,15.786,9.482c3.944,3.212,6.945,6.789,9.521,10.767c2.536,4.003,4.663,8.494,6.064,13.989
			c1.317,5.513,1.565,10.44,1.121,15.111c-0.398,4.627-1.828,9.122-3.358,14.859c-0.736,2.855-1.501,6.054-1.813,9.746
			c-0.292,3.652-0.215,7.852,1.349,12.386c0.391,1.127,0.9,2.255,1.501,3.371c0.659,1.148,1.41,2.292,2.319,3.304
			c1.795,2.05,4.06,3.82,6.859,5.023c2.766,1.189,6.233,1.8,9.759,0.907c1.771-0.42,3.679-1.371,5.098-2.607
			c1.464-1.241,2.604-2.772,3.441-4.482c0.56-1.154,1.031-2.656,1.038-4.277c0.034-1.609-0.353-3.285-1.079-4.566
			c-0.766-1.28-1.735-2.114-2.559-2.363c-0.82-0.27-1.348-0.095-1.619,0.436c-1.038,0.476-0.831,2.127-1.27,3.402
			C489.198,221.906,488.444,223.234,487.878,224.203z"/>
		<path class="st3" d="M533.598,186.066c2.36,8.835,3.02,14.041,3.108,18.269c0.022,4.104-0.38,7.413-2.108,11.387
			c-1.836,3.842-4.117,5.995-6.984,7.532c-1.382,0.712-3.238,1.189-5.577,1.206c-2.278-0.065-5.248-0.627-7.509-2.735
			c-0.37-0.359-1.119-0.67-2.081-0.921c-0.902-0.252-2.092-0.457-3.05,0.05c-1.096,0.183-1.795,1.115-2.015,2.441
			c-0.186,1.28,0.241,2.839,0.923,3.644c1.878,2.52,4.217,4.164,6.449,5.245c2.25,1.082,4.443,1.632,6.491,1.907
			c4.108,0.448,7.672-0.185,10.673-1.559c2.997-1.392,5.121-3.127,7.066-5.2c1.895-2.075,3.504-4.45,4.835-7.353
			c2.545-5.815,3.296-10.436,3.109-16.007c-0.258-5.484-1.808-11.913-5.666-20.585c-0.581-1.494-3.268-3.543-5.19-2.471
			C533.91,181.324,533.152,184.605,533.598,186.066z"/>
		<path class="st3" d="M641.21,277.907c-1.391,12.333-6.527,21.29-12.494,25.651c-6.07,4.327-13.167,4.983-18.22,3.707
			c-5.185-1.356-8.336-4.518-9.848-9.219c-1.505-4.712-1.119-10.748-0.149-18.138c1.036-7.559,1.555-14.527,1.372-21.178
			c-0.19-6.687-0.931-13.28-2.93-20.413c-0.51-1.78-1.099-3.589-1.776-5.435c-0.431-0.986-0.868-1.987-1.313-3.005
			c-0.499-0.921-1.007-1.857-1.525-2.811c-2.154-3.67-4.706-7.236-7.658-10.963c-2.972-3.702-6.37-7.527-10.315-11.542
			c-3.963-3.999-8.439-8.206-13.944-12.37c-0.901-0.723-2.097-1.479-3.418-2.129c-1.266-0.686-2.723-1.224-4.028-1.58
			c-2.673-0.709-4.795-0.47-4.705,0.731c-0.849,0.831,0.315,2.384,1.847,4.136c0.782,0.904,1.699,1.809,2.609,2.766
			c0.924,0.892,1.847,1.753,2.657,2.443c4.79,4.055,8.848,8.261,12.404,12.206c3.546,3.964,6.609,7.71,9.244,11.249
			c2.611,3.545,4.832,6.877,6.558,9.982c0.397,0.77,0.787,1.526,1.171,2.269c0.298,0.712,0.59,1.413,0.878,2.104
			c0.548,1.587,1.034,3.143,1.456,4.678c1.658,6.158,2.341,11.962,2.546,17.973c0.188,6.066-0.191,12.175-1.206,19.617
			c-0.92,7.54-1.822,14.895,0.442,22.463c1.128,3.734,3.2,7.319,6.219,10.229c3.005,2.893,6.853,4.886,10.962,5.87
			c4.12,0.99,8.523,1.059,13.029,0.183c4.503-0.867,9.149-2.787,13.488-6.128c8.622-6.853,13.899-18.697,14.729-32.576
			c0.541-4.762-1.657-13.025-3.796-11.838C643.305,266.009,641.809,273.838,641.21,277.907z"/>
		<path class="st3" d="M699.771,427.44c-1.423,6.558-4.958,11.931-9.087,15.384c-4.167,3.461-8.795,5.112-13.274,5.386
			c-4.471,0.37-8.644-0.572-12.211-1.963c-3.561-1.474-6.511-3.541-8.815-5.888c-2.305-2.326-3.921-5.026-5.076-7.965
			c-1.14-2.911-1.762-5.995-1.957-9.228c-0.367-6.467,0.887-13.497,3.849-21.199c2.979-7.662,6.931-13.97,10.72-20.322
			c3.81-6.346,7.734-12.631,11.234-20.373c1.724-3.877,3.343-8.126,4.463-12.959c1.191-4.834,1.754-10.171,1.562-15.947
			c-0.432-11.448-3.837-25.198-14.035-38.217c-0.813-1.119-2.048-2.272-3.279-3.437c-1.279-1.126-2.743-2.106-4.03-2.918
			c-2.746-1.469-4.95-2.039-5.181-0.809c-1.119,0.467-0.212,2.577,1.288,4.895c0.676,1.248,1.566,2.503,2.388,3.758
			c0.776,1.297,1.671,2.429,2.353,3.425c8.333,11.743,10.769,23.768,10.833,33.488c0.062,9.872-2.548,17.591-5.681,24.503
			c-3.187,6.895-6.897,12.925-10.699,19.313c-3.759,6.399-7.956,13.104-11.41,21.94c-3.361,8.776-5.023,17.078-4.605,25.445
			c0.493,8.29,3.163,16.895,9.972,23.78c6.664,6.621,16.752,11.451,29.209,10.3c6.155-0.548,12.926-3.244,18.376-8.238
			c5.434-4.969,9.641-12.117,11.082-20.699c0.512-2.887,0.224-7.111-0.955-10.119c-0.54-1.516-1.281-2.712-1.961-3.405
			c-0.665-0.698-1.249-0.895-1.7-0.455c-0.59-0.129-1,0.387-1.284,1.234c-0.268,0.847-0.424,2.027-0.652,3.347
			C700.833,422.133,700.203,425.233,699.771,427.44z"/>
		<path class="st3" d="M750.796,523.192c-0.982,4.7-3.73,8.275-6.958,10.908c-3.228,2.648-6.864,4.401-10.336,5.72
			c-6.818,2.504-13.036,2.833-17.832,1.776c-4.828-1.057-8.161-3.612-10.102-7.278c-1.907-3.658-2.429-8.652-1.103-14.354
			c0.669-2.846,1.668-5.451,2.861-7.794c1.231-2.407,2.67-4.697,4.192-6.933c3.051-4.495,6.523-8.811,10.08-14.229
			c3.565-5.359,7.104-12.301,8.873-21.023c1.753-8.688,1.926-19.463-2.214-31.485c-0.343-1.009-0.924-2.17-1.563-3.317
			c-0.691-1.127-1.518-2.212-2.308-3.108c-1.719-1.738-3.328-2.659-4.064-1.724c-1.149,0.139-1.309,2.012-1.032,4.15
			c0.074,1.107,0.28,2.282,0.512,3.406c0.18,1.147,0.46,2.214,0.731,3.089c2.904,10.546,2.267,19.689,0.502,26.902
			c-1.832,7.303-4.693,12.63-7.972,17.473c-3.257,4.853-6.717,9.192-10.034,14.127c-1.659,2.476-3.285,5.086-4.787,8.061
			c-1.524,3.043-2.792,6.37-3.672,10.12c-1.711,7.442-1.389,14.861,1.907,21.366c3.246,6.493,9.781,11.156,17.025,12.547
			c7.254,1.461,15.158,0.659,23.596-2.802c4.092-1.754,8.518-4.088,12.694-7.885c4.129-3.71,8.041-9.339,9.011-16.37
			c0.424-2.339-0.047-5.854-1.37-8.185c-1.303-2.376-3.034-3.41-3.79-2.525c-1.175,0.078-1.384,1.851-1.722,3.739
			C751.614,519.483,751.121,521.636,750.796,523.192z"/>
		<path class="st3" d="M780.949,624.473c-3.084,5.054-6.257,9.195-9.581,12.301c-1.668,1.541-3.371,2.811-5.072,3.862
			c-1.737,1.12-3.25,1.668-4.929,2.212c-6.701,1.895-13.04,0.383-16.602-2.286c-1.83-1.345-2.97-2.996-3.627-4.873
			c-0.673-1.964-0.792-3.979-0.409-6.177c0.779-4.413,3.573-9.268,7.727-14.454c2.078-2.608,4.236-4.977,6.357-7.439
			c2.092-2.426,4.077-4.788,5.968-7.207c3.774-4.832,7.296-9.801,10.447-15.919c1.568-3.058,3.034-6.408,4.238-10.182
			c0.591-1.826,1.169-4.024,1.507-6.16c0.382-2.161,0.6-4.381,0.704-6.684c0.21-4.606-0.026-9.546-0.883-14.908
			c-0.919-5.343-2.25-11.17-5.272-17.249c-0.958-2.058-3.001-4.721-5.201-6.238c-2.205-1.54-4.191-1.92-4.531-0.786
			c-1.058,0.518-0.549,2.314,0.112,4.297c0.693,2.006,1.521,4.443,2.26,6.152c2.178,5.083,3.113,10.328,3.673,15.05
			c0.52,4.757,0.529,9.137,0.198,13.053c-0.164,1.957-0.414,3.809-0.773,5.508c-0.339,1.734-0.765,3.186-1.328,4.811
			c-1.087,3.139-2.384,5.974-3.778,8.615c-2.796,5.286-5.954,9.803-9.452,14.335c-1.75,2.267-3.618,4.525-5.623,6.877
			c-1.971,2.321-4.239,4.826-6.567,7.743c-4.579,5.817-8.447,11.664-9.874,18.989c-0.679,3.626-0.511,7.647,0.785,11.339
			c1.279,3.777,3.862,7.317,7.258,9.733c3.382,2.452,7.407,3.952,11.728,4.562c4.329,0.625,9.018,0.273,13.872-1.288
			c10.046-3.403,17.825-12.333,23.713-23.56c2.134-3.782,3.825-11.354,1.468-11.476
			C787.929,615.224,782.988,621.104,780.949,624.473z"/>
		<path class="st3" d="M765.706,704.917c7.885-7.499,11.649-13.408,14.556-18.292c2.766-5,4.563-9.197,6.722-15.084
			c1.996-5.944,3.216-10.344,4.185-15.975c0.782-5.628,1.539-12.594,0.072-23.376c-0.238-1.839-2.377-4.88-4.489-4.174
			c-2.189-0.079-3.71,3.165-3.606,4.794c-0.057,9.897-1.229,15.979-2.059,21.019c-1.005,5.014-1.897,9.003-3.687,14.347
			c-1.944,5.291-3.741,8.963-6.091,13.504c-2.503,4.452-5.391,9.931-11.533,17.692c-1.1,1.207-1.941,4.69-0.185,5.995
			C760.799,707.239,764.37,706.202,765.706,704.917z"/>
		<path class="st0" d="M602.823,583.213v0.029c-2.949,17.234-13.483,33.981-28.286,50.071c2.978,5.524,3.952,15.057,3.923,25.277
			v0.029c-0.028,20.125-3.923,42.913-3.923,42.913l-0.915,0.63H253.507c-0.631-8.788-2.606-45.747,5.152-70.11l-0.084-0.028
			c-29.515-10.564-37.876-34.383-30.948-67.734c1.289-6.356,3.149-13.054,5.554-20.068l0.2-0.63
			c2.606-7.586,6.414-14.2,10.908-19.897l0.114-0.114c20.499-25.852,55.48-33.467,59.402-34.268c0.23-0.057,0.344-0.057,0.344-0.057
			l18.953-23.991l85.912-24.018l94.786,20.21l9.906,17.349c0.603,1.117,1.203,2.146,1.747,3.091
			c0.572,1.031,1.088,1.947,1.545,2.749l1.175,2.033c0.485,0.829,0.773,1.316,0.773,1.316l0.057,0.029
			c0.918,0.2,11.137,2.69,24.735,9.619c13.169,6.699,29.487,17.578,43.458,34.583c2.862,3.493,5.324,6.957,7.384,10.42l0.029,0.058
			C602.851,556.447,605.085,569.959,602.823,583.213z"/>
		<path class="st4" d="M602.823,583.213v0.029c-1.231,34.325-28.286,50.071-28.286,50.071s2.148,13.54,3.923,25.277v0.029
			c1.173,8.016,2.204,15.173,2.204,16.547c0,1.575,0.487,13.169,0.115,26.996h-24.677c3.349-42.312,2.977-92.096-4.639-94.357
			c-11.221-3.378-131.372-61.78-139.245-88.717c-26.939,38.16-123.53,65.127-136.984,68.506c-13.483,3.35,2.232,31.433,2.232,38.161
			c0,4.266,1.345,43.056,2.919,76.408h-25.163c-0.859-32.092,3.435-70.11,3.435-70.11l-0.084-0.028
			c-0.831-0.401-7.903-4.152-22.646-23.103c-8.503-10.907-11.108-27.367-8.302-44.631c1.031-6.67,2.891-13.455,5.554-20.068
			c2.806-7.128,6.526-14.086,11.108-20.527l0.114-0.114c0.515-0.774,1.059-1.517,1.632-2.262
			c20.126-26.452,53.993-31.519,57.77-32.006c0.23-0.057,0.344-0.057,0.344-0.057l22.732-31.949c0,0,8.989-11.221,3.378-15.716
			c-5.64-4.495-8.99-34.812,16.833-31.433c25.822,3.378,20.212,26.939,20.212,26.939l41.652-0.487l51.561-0.631
			c0,0,3.349-11.221,6.725-19.094c3.379-7.844,21.329-11.221,31.433-2.232c10.107,8.989,4.496,25.821,2.262,32.549
			c-1.489,4.495,6.929,21.012,12.768,31.605c0.603,1.117,1.203,2.146,1.747,3.091c1.146,2.062,2.09,3.693,2.72,4.782
			c0.485,0.829,0.773,1.316,0.773,1.316l0.057,0.029c0.831,0.344,11.996,4.982,24.735,9.619c3.265,1.175,6.642,2.348,9.963,3.464
			c12.883,4.295,30.374,16.461,40.88,41.539l0.029,0.058c3.235,7.7,5.81,16.633,7.387,26.91
			C602.737,574.453,602.966,578.977,602.823,583.213z"/>
		<path class="st5" d="M392.941,435.678c0.907,32.623,3.625,64.338,18.123,66.151c14.499,1.813,15.405-67.057,15.405-67.057
			L392.941,435.678z"/>
		<path class="st3" d="M306.961,483.857c-17.728,3.871-34.502,10.661-49.043,21.282c-14.512,10.515-26.63,25.293-33.166,43.154
			c-3.238,8.933-5.066,18.297-5.003,27.69c-0.025,9.333,1.926,18.838,5.768,27.333c1.84,4.298,4.302,8.274,6.941,12.104
			c2.777,3.742,5.842,7.284,9.327,10.439c6.963,6.264,15.403,11.267,24.885,13.658c0.472,0.116,1.193,0.157,2,0.093
			c0.824-0.122,1.733-0.349,2.564-0.682c1.674-0.664,2.996-1.752,2.998-3.208c0.392-1.38-0.499-2.899-1.565-4.095
			c-0.539-0.599-1.132-1.118-1.685-1.508c-0.538-0.451-1.035-0.774-1.404-0.903c-14.972-4.754-26.616-16.943-32.371-30.948
			c-5.866-13.966-5.433-30.248,0.115-45.352c2.82-7.554,6.717-14.595,11.506-20.885c4.757-6.285,10.424-11.852,16.73-16.702
			c12.594-9.736,27.591-16.612,43.939-21.071c1.586-0.523,5.764-3.823,4.842-6.576C314.198,484.804,308.756,483.44,306.961,483.857z
			"/>
		<path class="st3" d="M328.543,442.331c-4.613,7.81-9.072,14.826-14.045,22.276c-5.022,7.414-9.838,14.19-15.332,21.408
			c-0.246,0.378,0.636,2.964,2.773,4.873c1.992,2.062,4.653,2.747,5.042,2.443c7.222-6.412,13.218-13.218,18.632-21.249
			c5.397-8.044,9.438-16.163,12.653-25.271c0.133-0.475-1.503-2.68-4.165-3.749C331.528,441.802,328.798,441.961,328.543,442.331z"
			/>
		<path class="st3" d="M372.048,438.699c2.471-8.627,0.405-17.728-5.114-24.558c-2.734-3.418-6.615-6.246-10.87-7.776
			c-4.255-1.578-8.817-1.987-13.301-1.408c-4.475,0.643-8.761,2.258-12.439,4.917c-3.689,2.615-6.673,6.377-8.392,10.402
			c-3.489,8.058-3.044,17.38,1.647,25.032c0.23,0.381,1.21,0.8,2.402,0.8c1.182,0.02,2.508-0.374,3.608-1.302
			c1.188-0.796,2.013-1.935,2.577-2.838c0.542-0.903,0.837-1.616,0.766-1.868c-2.077-4.638-1.69-10.303,0.532-14.42
			c1.097-2.089,2.566-3.713,4.463-4.973c1.888-1.278,4.205-2.115,6.645-2.481c2.449-0.3,4.907-0.114,7.066,0.611
			c2.165,0.707,4.016,1.878,5.631,3.596c3.243,3.372,5.133,8.727,4.372,13.751c-0.001,0.262,0.475,0.87,1.239,1.596
			c0.784,0.72,1.885,1.596,3.242,2.045c1.307,0.598,2.691,0.624,3.825,0.288C371.096,439.795,371.928,439.129,372.048,438.699z"/>
		<path class="st3" d="M458.94,434.142c-13.909-2.664-27.036-4.463-41.369-4.946c-14.314-0.456-27.818,0.413-41.985,3.565
			c-0.712,0.191-2.309,2.676-1.67,5.208c0.327,2.583,2.598,4.429,3.269,4.389c13.559-1.384,26.242-1.417,39.977-0.999
			c13.74,0.479,26.568,1.417,40.494,2.425c0.697,0.021,2.924-1.892,3.124-4.492C461.292,436.734,459.632,434.304,458.94,434.142z"/>
		<path class="st3" d="M259.477,696.357c-1.716-11.146-2.312-21.507-2.028-32.643c0.391-11.132,1.614-21.438,4.004-32.46
			c0.086-0.549-1.751-2.797-4.508-3.568c-2.681-1.027-5.472-0.139-5.727,0.435c-4.418,11.449-6.75,22.851-7.155,35.188
			c-0.344,12.337,1.293,23.86,5.008,35.556c0.22,0.587,2.953,1.644,5.69,0.781C257.561,699.043,259.53,696.91,259.477,696.357z"/>
		<path class="st3" d="M520.067,494.256c16.347,4.46,31.343,11.335,43.937,21.071c6.307,4.849,11.972,10.416,16.73,16.702
			c4.787,6.291,8.685,13.332,11.507,20.885c5.548,15.104,5.981,31.385,0.114,45.352c-5.754,14.003-17.4,26.193-32.369,30.948
			c-0.37,0.129-0.867,0.451-1.406,0.903c-0.551,0.39-1.145,0.909-1.683,1.508c-1.068,1.196-1.958,2.715-1.567,4.095
			c0.004,1.456,1.326,2.544,2.999,3.208c0.831,0.332,1.74,0.56,2.563,0.682c0.807,0.064,1.529,0.023,2.002-0.094
			c9.482-2.389,17.92-7.393,24.884-13.656c3.486-3.155,6.549-6.697,9.328-10.439c2.637-3.83,5.1-7.807,6.94-12.104
			c3.842-8.495,5.792-18,5.768-27.333c0.062-9.393-1.765-18.757-5.003-27.69c-6.536-17.861-18.655-32.639-33.168-43.154
			c-14.54-10.621-31.315-17.411-49.042-21.284c-1.797-0.415-7.24,0.948-7.378,3.825C514.303,490.434,518.48,493.733,520.067,494.256
			z"/>
		<path class="st3" d="M491.297,446.809c3.215,9.109,7.256,17.229,12.654,25.272c5.412,8.031,11.408,14.837,18.63,21.25
			c0.39,0.303,3.049-0.382,5.043-2.444c2.136-1.909,3.018-4.495,2.773-4.873c-5.493-7.217-10.31-13.993-15.334-21.408
			c-4.973-7.449-9.431-14.466-14.044-22.276c-0.257-0.37-2.985-0.529-5.558,0.73C492.801,444.131,491.163,446.335,491.297,446.809z"
			/>
		<path class="st3" d="M467.92,436.185c-0.76-5.024,1.13-10.379,4.371-13.751c1.616-1.718,3.466-2.889,5.631-3.596
			c2.161-0.725,4.618-0.911,7.067-0.611c2.439,0.366,4.757,1.203,6.645,2.481c1.896,1.26,3.366,2.884,4.463,4.973
			c2.221,4.116,2.61,9.782,0.532,14.42c-0.071,0.25,0.224,0.965,0.766,1.868c0.563,0.903,1.389,2.042,2.577,2.838
			c1.099,0.928,2.425,1.322,3.609,1.302c1.193-0.002,2.172-0.419,2.401-0.802c4.692-7.651,5.136-16.973,1.648-25.03
			c-1.72-4.025-4.703-7.788-8.392-10.402c-3.677-2.659-7.964-4.274-12.439-4.917c-4.485-0.579-9.047-0.17-13.301,1.408
			c-4.254,1.53-8.136,4.358-10.87,7.776c-5.519,6.83-7.586,15.931-5.113,24.558c0.118,0.429,0.95,1.096,2.099,1.415
			c1.135,0.337,2.518,0.312,3.825-0.288c1.358-0.449,2.458-1.325,3.242-2.045C467.445,437.056,467.921,436.447,467.92,436.185z"/>
		<path class="st3" d="M580.491,698.864c3.716-11.695,5.353-23.218,5.009-35.555c-0.404-12.336-2.736-23.739-7.155-35.188
			c-0.255-0.573-3.046-1.461-5.728-0.435c-2.758,0.771-4.594,3.019-4.508,3.568c2.389,11.022,3.613,21.328,4.004,32.46
			c0.284,11.136-0.312,21.497-2.029,32.643c-0.053,0.553,1.916,2.686,4.715,3.289C577.539,700.508,580.271,699.451,580.491,698.864z
			"/>
		<path class="st6" d="M432.743,579.929c1.892,1.035,2.994,1.178,3.94,0.892c0.964-0.218,2.055-0.795,2.993-1.064
			c1.181-0.367,3.09,1.128,4.145,3.563c1.042,2.404,0.555,4.979-1.356,5.579c-2.122,0.648-4.889,0.944-7.594,0.252
			c-1.326-0.329-2.523-0.881-3.422-1.396c-0.903-0.517-1.575-0.958-2.155-1.261l-1.237-0.614c-0.625-0.291-1.21-0.608-1.768-0.939
			c-1.107-0.665-2.078-1.384-2.983-2.098c-1.803-1.43-3.362-2.859-4.873-4.064c-2.894-2.373-5.911-3.655-9.111-3.599
			c-3.231,0.031-6.031,1.483-9.353,3.953c-1.655,1.19-3.398,2.529-5.43,3.781c-1.027,0.622-2.135,1.221-3.367,1.724l-3.088,1.145
			c-1.329,0.474-2.928,1.347-5.069,2.045c-2.067,0.695-4.988,1.21-7.973,0.193c-1.285-0.456-2.126-1.577-2.23-2.723
			c-0.11-1.176,0.403-2.305,1.292-3.278c0.89-0.973,1.919-1.698,2.643-2.219c0.753-0.526,1.191-0.911,1.429-0.812
			c0.366,0.146,1.079,0.555,2.444,0.653c1.341,0.102,3.133-0.162,4.912-0.825l2.854-1.055c0.736-0.301,1.504-0.706,2.288-1.18
			c1.577-0.968,3.196-2.195,4.959-3.469c1.762-1.262,3.684-2.614,6.036-3.66c2.322-1.035,4.909-1.653,7.521-1.692
			c5.255-0.168,10.326,2.253,13.87,5.217l4.844,4.043c0.755,0.596,1.494,1.135,2.21,1.562c0.356,0.21,0.706,0.398,1.046,0.558
			C431.665,579.382,432.256,579.67,432.743,579.929z"/>
		<path class="st7" d="M375.332,530.789c-1.338-3.352-6.894-8.242-9.926-10.801c-3.031-2.561-8.784-7.219-12.31-7.978
			c-0.738-0.158-2.949-0.612-4.46,1.433c-1.763,1.83-0.945,3.933-0.665,4.635c1.338,3.352,6.894,8.242,9.927,10.802
			c3.031,2.561,8.783,7.219,12.311,7.977c0.738,0.159,2.949,0.614,4.458-1.431C376.43,533.591,375.611,531.488,375.332,530.789z"/>
		<path class="st7" d="M459.883,511.649c-3.389,1.214-8.453,6.577-11.108,9.509c-2.656,2.931-7.494,8.499-8.368,11.992
			c-0.181,0.728-0.708,2.918,1.282,4.499c1.769,1.825,3.895,1.085,4.604,0.831c3.389-1.212,8.452-6.577,11.107-9.508
			c2.655-2.931,7.493-8.5,8.367-11.992c0.183-0.729,0.709-2.918-1.281-4.498C462.716,510.656,460.591,511.395,459.883,511.649z"/>
		<path class="st6" d="M408.713,540.987c-10.72-1.073-14.969,6.908-13.049,9.594c1.919,2.687,8.06,4.606,13.049,4.222
			c4.989-0.384,13.049-0.384,13.049-5.757C421.762,543.672,416.389,541.754,408.713,540.987z"/>
	</g>
</g>
</svg>
