<?xml version="1.0" encoding="iso-8859-1"?>
<!-- Generator: Adobe Illustrator 18.0.0, SVG Export Plug-In . SVG Version: 6.00 Build 0)  -->
<!DOCTYPE svg PUBLIC "-//W3C//DTD SVG 1.1//EN" "http://www.w3.org/Graphics/SVG/1.1/DTD/svg11.dtd">
<svg version="1.1" id="_x30_" xmlns="http://www.w3.org/2000/svg" xmlns:xlink="http://www.w3.org/1999/xlink" x="0px" y="0px"
	 viewBox="0 0 512 512" style="enable-background:new 0 0 512 512;" xml:space="preserve">
<g>
	<rect style="opacity:0;fill:#FFFFFF;" width="512" height="512"/>
	<path style="opacity:0.15;fill:#040000;" d="M512,204.084V512H190.669l-95.232-95.231V101.939h46.233v-1.894
		c0-5.529,3.021-10.086,6.656-10.086c1.792,0,3.481,1.126,4.71,2.97c1.178,1.842,1.946,4.3,1.946,7.116v1.894h93.85v-1.894
		c0-5.529,2.969-10.086,6.605-10.086c1.843,0,3.482,1.126,4.71,2.97c1.178,1.842,1.946,4.3,1.946,7.116v1.894h93.85v-1.894
		c0-5.529,2.97-10.086,6.605-10.086c1.843,0,3.533,1.126,4.711,2.97c1.178,1.842,1.945,4.3,1.945,7.116v1.894h40.653L512,204.084z"
		/>
	<g>
		<polygon style="fill:#F0EFEF;" points="415.539,101.939 415.539,341.658 335.207,422.042 95.437,422.042 95.437,101.939 		"/>
		<rect x="95.437" y="120.116" style="fill:#E8E2E2;" width="320.102" height="63.386"/>
		<rect x="95.437" y="101.939" style="fill:#C56161;" width="320.102" height="70.042"/>
		<g>
			<g>
				<path style="fill:#7A6E66;" d="M159.691,131.473c-1.412,1.242-3.014,2.198-4.731,2.869c-2.795,1.108-5.885,1.468-8.861,1.082
					c-1.507-0.193-2.995-0.57-4.407-1.15c-1.65-0.671-3.195-1.611-4.55-2.802c-2.518-2.223-4.016-4.992-4.502-7.87
					c-0.715-4.245,0.792-8.717,4.493-11.981c1.364-1.191,2.909-2.131,4.559-2.802c2.852-1.166,6.009-1.561,9.071-1.158
					c1.431,0.193,2.852,0.554,4.197,1.082c1.717,0.68,3.329,1.636,4.741,2.878c2.528,2.223,4.025,5.001,4.493,7.878
					C164.899,123.738,163.412,128.201,159.691,131.473z"/>
				<path style="fill:#594B4B;" d="M164.084,123.807c-0.498-2.821-2.002-5.546-4.472-7.719c-6.235-5.485-16.336-5.485-22.571,0
					c-2.47,2.173-3.974,4.898-4.472,7.719c-0.767-4.284,0.727-8.805,4.472-12.1c6.235-5.485,16.336-5.485,22.571,0
					C163.357,115.002,164.851,119.522,164.084,123.807z"/>
				<path style="fill:#E9D8C4;" d="M154.982,100.045v34.304c-2.816,1.127-5.888,1.485-8.909,1.076
					c-1.485-0.205-2.97-0.563-4.403-1.127v-34.253c0-5.529,3.021-10.086,6.656-10.086c1.792,0,3.481,1.126,4.71,2.97
					C154.214,94.771,154.982,97.229,154.982,100.045z"/>
			</g>
			<g>
				<path style="fill:#7A6E66;" d="M266.814,131.473c-1.412,1.242-3.014,2.198-4.731,2.869c-2.795,1.108-5.885,1.468-8.861,1.082
					c-1.507-0.193-2.995-0.57-4.407-1.15c-1.65-0.671-3.195-1.611-4.55-2.802c-2.518-2.223-4.016-4.992-4.502-7.87
					c-0.715-4.245,0.792-8.717,4.493-11.981c1.364-1.191,2.909-2.131,4.559-2.802c2.852-1.166,6.009-1.561,9.071-1.158
					c1.431,0.193,2.852,0.554,4.197,1.082c1.717,0.68,3.329,1.636,4.741,2.878c2.528,2.223,4.025,5.001,4.493,7.878
					C272.022,123.738,270.534,128.201,266.814,131.473z"/>
				<path style="fill:#594B4B;" d="M271.206,123.807c-0.498-2.821-2.002-5.546-4.472-7.719c-6.235-5.485-16.336-5.485-22.571,0
					c-2.47,2.173-3.974,4.898-4.473,7.719c-0.767-4.284,0.727-8.805,4.473-12.1c6.235-5.485,16.336-5.485,22.571,0
					C270.479,115.002,271.973,119.522,271.206,123.807z"/>
				<path style="fill:#E9D8C4;" d="M262.093,100.045v34.304c-2.816,1.127-5.888,1.485-8.858,1.076
					c-1.536-0.205-3.021-0.563-4.403-1.127v-34.253c0-5.529,2.969-10.086,6.605-10.086c1.843,0,3.482,1.126,4.71,2.97
					C261.325,94.771,262.093,97.229,262.093,100.045z"/>
			</g>
			<g>
				<path style="fill:#7A6E66;" d="M373.936,131.473c-1.412,1.242-3.014,2.198-4.731,2.869c-2.795,1.108-5.885,1.468-8.861,1.082
					c-1.507-0.193-2.995-0.57-4.407-1.15c-1.65-0.671-3.195-1.611-4.55-2.802c-2.518-2.223-4.016-4.992-4.502-7.87
					c-0.715-4.245,0.792-8.717,4.493-11.981c1.364-1.191,2.909-2.131,4.559-2.802c2.852-1.166,6.009-1.561,9.071-1.158
					c1.431,0.193,2.852,0.554,4.197,1.082c1.717,0.68,3.329,1.636,4.741,2.878c2.528,2.223,4.025,5.001,4.493,7.878
					C379.144,123.738,377.656,128.201,373.936,131.473z"/>
				<path style="fill:#594B4B;" d="M378.328,123.807c-0.498-2.821-2.002-5.546-4.472-7.719c-6.235-5.485-16.336-5.485-22.571,0
					c-2.47,2.173-3.974,4.898-4.473,7.719c-0.767-4.284,0.727-8.805,4.473-12.1c6.235-5.485,16.336-5.485,22.571,0
					C377.601,115.002,379.095,119.522,378.328,123.807z"/>
				<path style="fill:#E9D8C4;" d="M369.203,100.045v34.304c-2.816,1.127-5.888,1.485-8.858,1.076
					c-1.485-0.205-3.021-0.563-4.403-1.127v-34.253c0-5.529,2.97-10.086,6.605-10.086c1.843,0,3.533,1.126,4.711,2.97
					C368.435,94.771,369.203,97.229,369.203,100.045z"/>
			</g>
		</g>
		<rect x="138.158" y="216.837" style="fill:#D3D3D3;" width="117.688" height="28.365"/>
		<rect x="138.158" y="275.585" style="fill:#D3D3D3;" width="234.674" height="28.365"/>
		<rect x="138.158" y="340.396" style="fill:#D3D3D3;" width="234.674" height="28.365"/>
		<polygon style="fill:#847F7F;" points="416.57,341.669 335.185,422.041 335.185,341.669 		"/>
		<g>
			<path style="fill:#6EB1AC;" d="M306.534,231.629l-6.195-19.967l-0.614-2.048H288l-6.656,21.043l-4.096,12.903h9.37l2.202-7.936
				h9.369l1.024,3.328l1.383,4.608h9.574L306.534,231.629z M289.946,229.837l1.843-6.81c0.256-1.024,0.512-2.355,0.871-3.686
				c0.256-1.229,0.563-2.457,0.819-3.482h0.103c0.154,0.614,0.307,1.28,0.512,2.048c0.358,1.741,0.819,3.686,1.229,5.12l1.792,6.81
				H289.946z"/>
			<path style="fill:#6EB1AC;" d="M335.36,209.664v20.48c0,5.427-2.048,7.526-5.581,7.526c-3.431,0-5.53-2.253-5.53-7.526v-20.48
				h-9.267v19.558c0,9.779,4.762,14.797,14.643,14.797c9.779,0,15.002-5.017,15.002-14.694v-19.661H335.36z"/>
			<path style="fill:#6EB1AC;" d="M367.872,224v6.093h4.864v7.117c-0.512,0.256-1.587,0.359-2.918,0.359
				c-4.352,0-8.09-2.151-9.472-6.605c-0.358-1.178-0.563-2.56-0.563-4.096c0-7.731,4.915-10.957,11.469-10.957
				c1.434,0,2.663,0.103,3.738,0.256c1.485,0.204,2.662,0.512,3.738,0.922l1.741-6.4c-0.051,0-0.051,0-0.051-0.051
				c-1.792-0.666-5.171-1.331-9.421-1.331c-11.418,0-20.941,5.836-20.941,17.561c0,4.25,1.178,8.09,3.533,10.957
				c0.614,0.717,1.28,1.382,2.048,1.997c3.226,2.611,7.885,4.045,14.285,4.045c4.403,0,9.165-0.871,11.571-1.639V224H367.872z"/>
		</g>
		<path style="opacity:0.1;fill:#FFFFFF;" d="M410.061,101.939l-0.102,0.103l-18.073,18.074l-91.546,91.546l-6.247,6.246
			l-1.433,1.434l-11.315,11.315L171.622,340.378l-28.365,28.365l-47.821,47.821V101.939h46.233v-1.894
			c0-5.529,3.021-10.086,6.656-10.086c1.792,0,3.481,1.126,4.71,2.97c1.178,1.842,1.946,4.3,1.946,7.116v1.894h93.85v-1.894
			c0-5.529,2.969-10.086,6.605-10.086c1.843,0,3.482,1.126,4.71,2.97c1.178,1.842,1.946,4.3,1.946,7.116v1.894h93.85v-1.894
			c0-5.529,2.97-10.086,6.605-10.086c1.843,0,3.533,1.126,4.711,2.97c1.178,1.842,1.945,4.3,1.945,7.116v1.894H410.061z"/>
	</g>
</g>
</svg>
