<?xml version="1.0" encoding="utf-8"?>
<!-- Generator: Adobe Illustrator 22.1.0, SVG Export Plug-In . SVG Version: 6.00 Build 0)  -->
<svg version="1.1" id="_x34_" xmlns="http://www.w3.org/2000/svg" xmlns:xlink="http://www.w3.org/1999/xlink" x="0px" y="0px"
	 viewBox="0 0 850 815" style="enable-background:new 0 0 850 815;" xml:space="preserve">
<style type="text/css">
	.st0{fill:#FFFFFF;}
	.st1{fill:#FFBC6C;}
	.st2{fill:#4D251D;}
	.st3{fill:#EFAA5E;}
	.st4{fill:#FF8F8F;}
	.st5{fill:#FF9B57;}
	.st6{fill:#E8E8E8;}
	.st7{fill:#D6D6D6;}
</style>
<g>
	<path class="st0" d="M98.592,284.719c-4.351-1.029-8.826-1.549-13.302-1.549c-21.773,0-41.315,12.279-49.786,31.279
		c-9.288,20.84-3.303,45.093,0.272,59.583c7.729,31.314,22.054,63.558,42.581,95.826c21.319,33.515,46.131,61.632,73.744,83.569
		l0.976,0.794c5.863,4.801,11.001,8.578,15.606,11.426l-66.744-0.765c-1.013-0.01-2.241-0.153-3.579-0.281
		c-2.357-0.233-5.291-0.517-8.297-0.517c-2.521,0-4.796,0.198-6.897,0.603c-8.465,0.249-16.218,4.01-21.912,10.66
		c-6.997,8.17-10.289,20.014-8.593,30.91c2.198,14.103,8.609,27.946,14.264,40.159c2.027,4.376,3.943,8.511,5.605,12.494
		c3.595,8.61,7.143,17.24,10.692,25.87c4.5,10.947,9.001,21.894,13.595,32.801l1.532,3.641c7.024,16.685,14.285,33.939,22.44,50.599
		c7.149,14.61,16.108,24.857,36.597,27.371c15.596,1.916,32.433,2.808,52.992,2.808c13.944,0,28.019-0.411,41.63-0.806
		c9.473-0.277,18.903-0.552,28.245-0.689c89.216-1.32,169.766-2.972,252.114-9.895c2.558-0.217,5.62-0.3,8.862-0.39
		c15.854-0.433,37.567-1.023,48.959-18.493c1.583-2.429,2.852-5.03,3.796-7.747c0.222,0,0.444,0,0.661,0
		c2.385,0,4.79-0.089,7.004-0.174c1.561-0.064,3.006-0.125,4.227-0.125l0.68,0.009c13.186,0.469,28.815,0.963,44.745,1.1
		c4.004,0.032,8.007,0.048,12.008,0.048c30.485,0,60.368-0.905,91.146-1.929c9.35-0.525,16.62-6.583,18.523-15.433
		c2.02-9.401-2.711-19.446-11.247-23.884c-5.724-2.978-12.317-3.322-16.777-3.322c-2.438,0-4.927,0.12-7.306,0.239
		c-1.752,0.089-3.429,0.179-4.932,0.179l-0.856-0.013c-10.272-0.372-21.138-0.736-32.288-0.944
		c2.842-6.054,3.807-13.526,4.611-21.744c0.116-1.193,0.222-2.289,0.337-3.236c2.459-20.415,0.99-40.117-4.365-58.562
		c-8.711-30.008-27.165-54.504-52.703-70.412c6.581-5.063,13.308-10.651,20.282-16.849c34.476-30.624,63.745-66.386,84.643-103.417
		c24.999-44.293,24.317-79.433-2.022-104.446c-10.578-10.045-24.531-15.806-38.285-15.806c-10.178,0-19.836,3.153-27.927,9.114
		c-11.598,8.548-17.796,21.465-23.265,32.862c-1.398,2.914-2.763,5.77-4.189,8.439c-8.732,16.328-18.597,34.274-29.673,52.374
		c-9.747-58.603-60.769-104.433-114.877-122.576c-8.579-2.876-17.572-5.438-26.895-7.666c0.666-1.104,1.299-2.219,1.894-3.348
		c13.282-25.172,7.647-56.369-14.023-77.628c-12.435-12.201-28.969-20.706-48.334-24.962c1.875-5.047,4.513-13.371-0.227-20.234
		c-2.659-3.851-7.073-6.149-11.803-6.149c-3.035,0-6.032,0.899-9.153,2.745c-7.416,4.186-12.157,12.264-14.292,20.593
		c-17.324,0.6-47.038,4.142-67.558,20.104c-26.272,20.441-33.771,57.503-18.72,85.095c-40.5,7.789-96.689,27.767-131.429,78.8
		c-4.08,5.996-7.676,12.341-10.743,18.924c-0.617-1.386-1.198-2.754-1.732-4.112c-6.814-17.288-10.706-34.892-14.829-53.532
		l-0.229-1.03C138.654,308.587,121.226,290.059,98.592,284.719z"/>
	<path class="st0" d="M236.169,90.112C236.17,90.112,236.17,90.112,236.169,90.112c6.073,0,11.304-2.879,14.353-7.9
		c4.489-7.393,2.46-17.138-0.695-23.378c-0.281-0.633-0.516-1.434-0.797-2.279c-1.877-5.649-5.783-17.396-18.113-19.14
		c-1.073-0.15-2.138-0.226-3.165-0.226c-0.366,0-0.722,0.041-1.083,0.06c-0.43-3.615-1.756-6.344-2.879-8.05
		c-4.252-6.442-11.969-9.713-22.938-9.713c-1.628,0-3.214,0.069-4.669,0.165c-14.184,0.95-27.134,1.556-39.711,1.853
		c-6.3,0.15-18.026,0.426-24.59,9.229c-3.525,4.727-4.534,10.749-2.843,16.963c0.968,3.557,5.408,15.164,21.867,15.164
		c4.45,0,8.795-0.845,11.968-1.46c0.914-0.179,1.746-0.344,2.431-0.446c0.746-0.106,2.756-0.328,5.416-0.6
		c-0.606,1.304-1.143,2.678-1.583,4.125c-3.762,12.369-2.002,25.411,5.09,37.717c6.57,11.393,15.042,18.658,25.185,21.598
		c3.231,0.937,6.343,1.412,9.25,1.412h0.001c7.44,0,12.001-3.105,14.519-5.71c2.461-2.547,5.342-7.068,5.093-14.266
		c-0.231-5.177-2.026-9.124-4.475-12.159c2.592-0.698,4.93-1.992,6.879-3.755C232.558,89.812,234.407,90.112,236.169,90.112z"/>
	<path class="st0" d="M352.913,30.143c-3.364-6.802-10.489-10.252-21.177-10.252c-2.481,0-5.076,0.176-7.572,0.434
		c-0.961-2.378-2.307-4.667-4.173-6.669c-3.597-3.854-8.52-5.981-13.864-5.981c-1.389,0-2.819,0.147-4.254,0.431
		c-6.225,1.24-13.173,5.248-15.608,16.415c-1.615,0.086-3.284,0.226-4.981,0.453c-8.358,0.93-15.848,6.602-18.702,14.192
		c-2.628,6.991-1.075,14.483,4.154,20.043c1.143,1.215,2.646,2.522,4.568,3.663c-0.769,1.364-1.425,2.891-1.937,4.6
		c-2.596,8.662-0.45,14.419,1.944,17.833c-4.021,2.277-7.144,5.914-8.664,10.552c-2.907,8.863,0.848,18.764,9.57,25.296
		c10.603,8.407,25.958,14.355,40.142,15.544c0.786,0.064,1.571,0.096,2.346,0.096c0.001,0,0.001,0,0.003,0
		c12.969,0,24.163-8.626,25.483-19.641c0.802-6.701-2.242-15.347-12.806-19.615c1.861-1.243,3.511-2.847,4.848-4.798
		c1.819-2.652,2.916-5.701,3.447-8.838c4.875-1.593,9.829-4.645,12.84-10.676c2.622-5.241,2.9-11.301,0.766-16.619
		c-0.494-1.23-1.106-2.4-1.825-3.503c0.649-0.654,1.271-1.365,1.863-2.139C356.291,41.85,355.121,34.613,352.913,30.143z"/>
	<path class="st0" d="M456.321,20.101c-4.218-3.698-9.957-5.573-17.056-5.573c-3.693,0-7.495,0.488-11.035,1.097
		c-1.141-2.927-2.696-5.655-4.718-7.864C420.111,4.046,415.621,2,410.869,2c-4.29,0-10.606,1.674-16.345,9.657
		c-1.444,2.005-2.479,3.914-3.229,5.665c-0.914-0.033-1.916-0.054-2.966-0.054c-4.41,0-17.832,0-24.333,9.7
		c-2.052,3.06-4.946,9.535-1.266,18.49c1.99,4.846,7.63,12.975,23.02,12.975c1.147,0,2.288-0.042,3.415-0.112
		c0.12,15.602,0.544,30.292,1.959,45.087l0.074,0.797c0.589,6.443,2.38,26.052,19.302,28.36c0.969,0.132,1.897,0.192,2.782,0.192
		c0,0,0.001,0,0.002,0c5.121,0,9.862-2.012,13.346-5.662c4.602-4.82,6.027-11.381,6.263-17.017c0.251,0.354,0.486,0.714,0.759,1.055
		c6.936,8.623,18.72,8.815,27.324,8.955c1.877,0.029,4.004,0.064,4.964,0.201c0.556,0.076,1.185,0.182,1.864,0.294
		c2.786,0.459,6.601,1.083,10.5,1.083c0.001,0,0,0,0.001,0c7.29,0,12.976-2.235,16.896-6.643c2.544-2.864,5.388-7.894,4.495-15.488
		c-0.807-7.414-5.437-15.232-15.737-17.696c9.055-3.892,14.946-13.334,13.831-23.061c-1.124-9.803-9.186-16.651-19.606-16.651
		c-0.544,0-1.106,0.019-1.986,0.08c-3.995,0.354-7.618,1.241-10.814,2.022c-1.628,0.398-3.154,0.736-4.612,1.007
		c0.501-0.941,0.939-1.925,1.301-2.955C464.868,34.319,462.609,25.613,456.321,20.101z M431.116,89.315
		c-0.294-1.98-0.598-3.941-0.901-5.882c-0.173-1.106-0.345-2.207-0.513-3.299c1.578,1.428,3.41,2.63,5.445,3.58
		C433.491,85.358,432.129,87.245,431.116,89.315z"/>
	<path class="st0" d="M527.521,98.951c-1.877,6.813-0.75,13.406,3.176,18.56c3.89,5.107,9.986,8.037,16.727,8.037
		c0.001,0,0.001,0,0.002,0c9.813,0,18.237-6.085,21.46-15.506c0.054-0.159,0.104-0.315,0.152-0.474
		c1.895-6.319,0.844-12.816-2.885-17.824c-0.03-0.039-0.064-0.073-0.095-0.112c5.137-8.151,6.564-20.202,7.558-28.771
		c0.214-1.845,0.507-4.37,0.633-4.963l0.492-1.767c2.016-7.128,5.389-19.06-0.874-28.611c-2.372-3.618-7.002-8.174-15.589-9.331
		c-0.229-0.033-0.46-0.058-0.692-0.076c-0.742-0.058-1.462-0.087-2.151-0.087c-6.077,0-11.392,2.162-15.37,6.255
		c-7.616,7.833-7.285,19.596-7.065,27.381c0.034,1.173,0.068,2.258,0.056,3.134c-0.036,0.896-0.234,2.305-0.444,4.02
		c-1.381,11.237-2.201,21.951,1.221,30.052C530.883,91.505,528.633,94.918,527.521,98.951z"/>
	<g>
		<path class="st0" d="M521.373,542.881c47.804-7.051,84.704-44.011,85.613-93.306c0.511-27.771-12.59-54.184-30.464-74.803
			c-26.646-30.737-64.818-48.587-104.056-56.988c-30.896-6.614-61.613-5.983-92.967-6.895c-29.671-0.863-59.691,1.34-88.5,8.779
			c-61.452,15.871-131.183,68.026-121.19,139.567c5.859,41.941,40.844,77.837,83.971,81.364c22.623,1.851,46.018,0.392,68.701,0.586
			C388.779,541.751,455.076,542.316,521.373,542.881z"/>
		<path class="st0" d="M222.86,518.934c-24.301-17.011-41.634-45.047-56.433-70.125c-15.042-25.488-29.236-52.681-38.161-81.003
			c-6.624-21.018-11.003-61.092-40.766-59.92c-36.551,1.438-36.286,49.095-28.396,74.309c7.49,23.934,22.086,46.037,35.788,66.785
			c18.332,27.759,38.573,54.437,61.036,78.992c10.669,11.663,21.88,22.906,34.026,33.039c10.143,8.463,24.861,14.52,30.856,26.161
			c15.919,30.915,26.761,64.531,35.536,98.097c2.777,10.625,1.089,22.902,11.824,26.223c16.811,5.201,34.055,9.287,51.03,13.918
			c22.6,6.163,45.199,12.326,67.799,18.49c14.971,4.083,30.31,9.765,45.607,12.438c5.63,0.984,11.054,0.246,16.854-0.128
			c17.924-1.156,35.848-2.313,53.772-3.47c45.712-2.949,91.424-5.898,137.136-8.848c7.923-0.511,15.847-1.022,23.77-1.533
			c3.09-0.2,10.716,0.729,13.469-0.869c4.428-2.572,3.891-11.908,4.456-17.587c4.431-44.509-3.191-94.006-34.924-127.652
			c-10.351-10.977-22.856-19.735-36.499-26.138c36.906-24.604,67.387-58.849,93.84-94.116
			c21.756-29.008,55.263-73.399,33.806-111.133c-7.055-12.41-23.771-21.562-37.833-15.628
			c-14.941,6.306-21.028,25.035-26.838,38.673c-12.942,30.377-29.478,60.064-50.035,85.956
			c-15.227,19.179-33.656,38.18-58.404,43.33c-20.074,4.18-40.999,5.023-61.425,5.917c-56.473,2.469-113.13,1.438-169.616-0.051
			C297.033,522.084,259.93,520.779,222.86,518.934z"/>
		<path class="st1" d="M431.406,316.023c31.221-9.942,54.992-43.488,35.207-74.339c-18.979-29.592-63.465-36.802-95.405-29.715
			c-21.441,4.758-42.624,11.832-51.709,33.696c-12.705,30.576,8.239,57.145,36.906,66.975"/>
		<path class="st2" d="M337.249,296.174c-18.591-17.983-19.412-49.535,3.482-65.034c15.849-10.731,40.741-13.495,59.454-12.711
			c25.897,1.087,60.33,12.716,65.854,41.949c2.362,12.496-2.594,24.816-10.619,34.255c-2.908,3.423-24.209,17.332-23.998,20.039
			c0.619,7.939,20.51-2.464,24.036-4.691c8.408-5.311,15.49-12.814,20.134-21.618c11.146-21.124,5.036-45.874-11.618-62.212
			c-18.848-18.491-46.376-24.891-72.073-24.337c-20.212,0.437-45.887,4.779-62.132,17.418
			c-22.369,17.404-28.857,51.927-11.16,74.839c5.973,7.733,21.981,21.549,32.984,19.727
			C364.079,311.728,341.307,300.238,337.249,296.174z"/>
		<path class="st3" d="M378.945,261.042c-0.037,4.164-6.478,4.108-6.442-0.056C372.539,256.822,378.979,256.878,378.945,261.042z"/>
		<path class="st3" d="M406.525,261.277c-0.034,4.164-6.477,4.111-6.441-0.054C400.118,257.057,406.562,257.112,406.525,261.277z"/>
		<path class="st3" d="M395.262,248.195c-0.034,4.165-6.477,4.111-6.441-0.054C388.856,243.976,395.299,244.029,395.262,248.195z"/>
		<path class="st3" d="M422.842,248.431c-0.038,4.164-6.479,4.108-6.443-0.056C416.436,244.21,422.876,244.267,422.842,248.431z"/>
		<path class="st3" d="M398.914,276.795c-0.034,4.163-6.475,4.11-6.441-0.054C392.506,272.577,398.95,272.63,398.914,276.795z"/>
		<path class="st3" d="M426.494,277.032c-0.038,4.164-6.479,4.108-6.443-0.056C420.087,272.81,426.528,272.868,426.494,277.032z"/>
		<path class="st3" d="M441.873,261.578c-0.038,4.164-6.478,4.111-6.441-0.054C435.468,257.361,441.906,257.414,441.873,261.578z"/>
		<path class="st3" d="M439.998,289.482c-0.037,4.165-6.479,4.111-6.442-0.054C433.591,285.264,440.031,285.318,439.998,289.482z"/>
		<path class="st3" d="M378.676,289.609c-0.037,4.164-6.477,4.109-6.441-0.055C372.271,285.388,378.71,285.446,378.676,289.609z"/>
		<path class="st3" d="M406.256,289.844c-0.034,4.164-6.477,4.111-6.441-0.054C399.849,285.625,406.292,285.678,406.256,289.844z"/>
		<path class="st2" d="M410.132,179.536c-6.536,3.579-9.628,14.422-9.003,21.374c0.519,5.778,3.006,11.689,7.453,5.993
			c2.09-2.678,1.963-14.117,3.421-18.147C412.574,187.176,417.567,175.035,410.132,179.536z"/>
		<path class="st2" d="M549.499,526.167c56.904-27.072,60.81-95.263,24.372-141.388c-37.399-47.345-98.621-59.453-155.61-63.763
			c-56.209-4.251-118.744-1.993-169.517,25.054c-47.226,25.159-87.375,79.637-64.521,134.629
			c11.131,26.782,32.629,38.168,57.001,50.798c9.12,4.727,17.744,12.331,1.339,12.385c-14.955,0.048-29.468-7.752-41.22-16.405
			c-47.751-35.157-50.796-100.516-18.946-147.306c32.136-47.21,88.879-70.26,143.856-76.495
			c59.423-6.739,124.553-4.992,181.736,14.179c60.051,20.132,115.602,77.645,106.656,145.199
			c-4.258,32.151-24.079,58.87-52.513,73.985c-7.607,4.044-28.69,13.522-37.175,8.084c-5.302-3.398-2.893-4.56,2.487-7.798
			C534.269,533.214,542.244,529.398,549.499,526.167z"/>
		<path class="st2" d="M381.096,492.858c-8.138,6.403-15.009,4.826-24.32,4.62c-5.466-0.12-9.463-0.547-1.902,4.843
			c5.798,4.133,17.108,2.652,23.116-0.709C381.705,499.535,387.881,488.381,381.096,492.858z"/>
		<path class="st4" d="M305.784,435.347c-0.338,39.952-92.781,39.171-92.491-0.789C213.591,393.486,306.135,394.252,305.784,435.347
			z"/>
		<path class="st2" d="M291.48,423.443c-3.731,1.653-19.219,18.906-11.279,20.124c2.537,0.389,8.824-9.559,10.176-11.359
			C290.723,431.748,298.626,420.081,291.48,423.443z"/>
		<path class="st2" d="M267.379,422.001c-7.201,1.997-18.968,24.065-11.138,21.494c2.67-0.876,7.949-11.32,10.086-14.024
			C267.224,428.338,274.082,419.767,267.379,422.001z"/>
		<path class="st2" d="M238.031,423.997c-5.683,2.241-14.801,23.627-6.821,21.237C233.516,444.543,244.359,421.093,238.031,423.997z
			"/>
		<path class="st4" d="M430.788,436.413c-0.341,39.952,92.101,40.747,92.492,0.788C523.682,396.13,431.139,395.32,430.788,436.413z"
			/>
		<path class="st2" d="M442.256,427.673c1.84,4.236,17.757,25.617,15.692,12.301c-0.573-3.704-5.761-9.382-8.466-11.839
			C448.436,427.185,439.604,421.128,442.256,427.673z"/>
		<path class="st2" d="M466.877,427.084c2.805,4.007,15.73,25.218,16.683,15.249c0.476-4.988-5.479-12.328-9.075-15.269
			C472.825,425.707,463.092,421.028,466.877,427.084z"/>
		<path class="st2" d="M495.747,429.195c2.008,4.34,10.731,26.303,13.037,14.411c0.786-4.053-3.246-10.954-5.887-13.778
			C501.791,428.643,493.163,422.666,495.747,429.195z"/>
		<path class="st5" d="M353.217,438.931c6.531-1.947,10.891-20.435,15.422-20.884c2.502-0.248,9.935,15.449,11.261,18.3
			c2.369,5.092,1.886,8.387-0.077,15.003c-1.303,4.395-4.328,15.615-9.725,17.026C358.829,471.323,354.294,445.413,353.217,438.931z
			"/>
		<path class="st2" d="M337.623,446.043c-6.611-1.004-13.256-4.59-16.245-10.811c-2.175-4.525-2.865-13.151,4.56-11.443
			c8.395,1.931,5.854,15.96,18.108,13.386c13.942-2.928,11.516-19.388,19.492-26.954c7.723-7.328,10.732,2.07,13.389,8.353
			c3.529,8.344,10.409,22.804,21.999,19.005c3.962-1.299,14.969-26.439,18.331-9.655c3.094,15.446-20.4,21.322-30.531,16.834
			c-11.093-4.913-11.243-15.566-18.066-23.118c-4.561,5.06-6.303,13.095-11.922,18.205
			C351.151,444.927,344.906,446.778,337.623,446.043z"/>
		<path class="st2" d="M384.593,445.286c-0.709,10.038-4.865,32.569-20.138,27.696c-7.266-2.319-18.188-25.367-10.454-29.398
			c9.328-4.862,5.725,19.544,13.945,20.381c3.683,0.375,6.466-9.369,7.285-11.927c0.627-1.959,0.742-7.723,2.984-8.765
			C380.009,442.438,384.729,442.138,384.593,445.286z"/>
		<path class="st2" d="M415.669,385.402c0.705-11.265-24.776-19.834-21.288-7.432C395.56,382.161,415.475,395.711,415.669,385.402z"
			/>
		<path class="st2" d="M338.205,370.931c-9.217-0.83-26.867,20.887-11.723,19.085C332.2,389.334,350.2,371.524,338.205,370.931z"/>
		<path class="st2" d="M753.724,749.873c-34.125,1.129-68.159,2.148-102.312,1.859c-14.805-0.126-29.598-0.567-44.394-1.09
			c-6.272-0.221-20.277,1.742-24.98-2.275c-5.194-4.437-2.989-11.554,2.757-13.859c6.667-2.674,18.731-0.65,25.913-0.901
			c7.647-0.266,15.294-0.525,22.944-0.695c18.183-0.404,36.381-0.421,54.568-0.276c14.397,0.115,28.779,0.564,43.166,1.087
			c6.909,0.251,18.136-1.763,24.322,1.454C762.031,738.465,762.477,749.381,753.724,749.873z"/>
		<path class="st6" d="M85.555,585.096c56.125,0.65,112.25,1.29,168.375,1.902c27.267,0.297,54.535,0.593,81.803,0.852
			c22.102,0.21,35.806,7.006,45.33,26.9c17.271,36.078,34.543,72.157,51.814,108.234c1.948,4.069,4.074,12.418,7.426,15.511
			c2.675,2.47,0.941,1.267,5.433,1.857c7.812,1.026,17.071-0.818,24.928-1.185c12.487-0.583,24.973-1.15,37.461-1.687
			c11.759-0.506,23.52-1.002,35.285-1.391c7.26-0.24,17.541-2.115,24.178,1.471c8.91,4.815,11.006,18.909,3.33,25.81
			c-5.418,4.869-15.565,4.52-22.388,5.24c-38.304,4.042-76.959,6.844-115.469,7.753c-79.404,1.874-158.849,5.308-238.289,4.014
			c-13.639-0.222-27.918,0.19-41.421-2.08c-9.686-1.628-10.853-8.135-14.914-16.829c-22.315-47.782-41.969-96.992-61.453-145.981
			C72.831,605.047,66.481,584.873,85.555,585.096z"/>
		<path class="st2" d="M85.555,592.441c71.087,0.822,142.178,1.845,213.268,2.382c16.555,0.125,34.51-2.468,50.833,0.93
			c13.232,2.754,19.544,11.639,25.249,23.089c15.533,31.176,30.1,62.873,45.139,94.289c3.441,7.187,6.881,14.375,10.322,21.562
			c4.724,9.869,5.132,12.88,16.296,12.958c17.818,0.125,35.858-1.705,53.663-2.487c16.62-0.73,33.255-1.605,49.887-1.988
			c8.174-0.188,26.574,4.591,13.736,14.75c-9.112,7.209-28.038,4.894-38.973,5.574c-16.484,1.026-32.94,2.539-49.426,3.584
			c-34.481,2.184-69.066,2.723-103.598,3.646c-38.612,1.031-77.23,1.906-115.854,2.331c-19.072,0.21-38.138,0.206-57.21,0.028
			c-8.592-0.081-17.192,0.269-25.782,0.068c-5.227-0.121-19.7,0.607-23.032-2.613c0.493,0.552,1.08,0.938,1.763,1.157
			c-9.943-11.991-15.293-32.036-21.405-46.209c-8.253-19.141-16.314-38.367-24.277-57.63c-6.454-15.613-12.561-31.393-19.177-46.938
			c-2.708-6.362-11.368-20.206-5.237-26.767c3.42-3.662,8.897-1.527,10.501-7.773c1.385-5.392-1.776-8.23-6.686-8.634
			c-14.438-1.187-21.835,14.648-19.99,26.496c2.625,16.849,12.512,34.056,19.015,49.632c8.15,19.519,16.059,39.138,24.271,58.633
			c7.567,17.965,15.095,36.057,23.667,53.572c6.189,12.644,12.29,18.409,26.459,20.15c39.687,4.876,81.186,1.805,121.082,1.215
			c83.781-1.236,167.691-2.827,251.211-9.852c14.936-1.257,38.461,1.595,47.978-12.999c8.169-12.526,2.208-30.077-11.786-34.866
			c-15.415-5.277-36.489-0.562-52.469,0.095c-24.572,1.009-49.137,2.192-73.7,3.398c2.114,1.214,4.229,2.426,6.342,3.638
			c-18.755-39.179-37.511-78.357-56.267-117.536c-8.343-17.427-16.43-33.162-36.947-37.404c-18.491-3.823-39.199-1.615-57.978-1.811
			c-43.244-0.451-86.487-0.94-129.731-1.429c-21.642-0.246-43.284-0.493-64.928-0.743c-6.304-0.072-19.044-3.355-22.616,3.91
			C76.846,586.579,80.246,592.38,85.555,592.441z"/>
		<path class="st7" d="M247.27,710.369c-16.982-0.808-33.882-15.218-16.729-29.998c3.009-2.594,6.746-4.428,10.569-5.46
			c1.761-0.475,5.324-0.099,6.596-0.978c2.156-1.49,0.95-3.639,2.287-6.412c3.89-8.062,6.84-14.124,14.613-8.248
			c-3.481,3.562-10.045,9.991-9.124,15.511c12.924-1.077,27.948,5.849,27.335,20.954C282.177,711.504,258.2,710.79,247.27,710.369z"
			/>
		<path class="st0" d="M135.857,711.329c-9.999-23.199-19.967-46.412-29.838-69.666c-4.329-10.199-11.449-21.808-13.645-32.717
			c-1.735-8.622,3.13-8.078,9.95-8.074c54.586,0.03,109.181,1.165,163.769,1.392c22.475,0.094,44.935-0.156,67.406-0.313
			c2.787-0.019,7.641-1.626,9.258,1.279c2.781,4.998-5.278,6.893-8.171,7.332c-7.263,1.101-15.617-0.053-22.939-0.079
			c-60.188-0.208-120.386-0.59-180.574-0.227c-5.693,0.035-18.831-2.226-23.428,2.337c-6.785,6.737,1.881,19.035,4.798,25.172
			c7.884,16.594,15.751,33.197,23.454,49.876c2.71,5.866,5.983,11.783,8.088,17.897
			C146.213,712.009,143.115,720.039,135.857,711.329z"/>
		<path class="st2" d="M150.43,437.632c-16.769-31.995-27.526-63.329-36.735-97.974c-4.214-15.856-18.95-29.29-36.421-23.246
			c-15.945,5.516-15.228,22.679-13.044,36.402c10.181,64.002,52.085,129.865,99.596,172.742
			c5.287,4.771,32.705,20.589,29.743,30.056c-3.993,12.763-29.518-9.368-33.345-12.408c-28.078-22.305-51.643-50.159-70.849-80.353
			c-17.903-28.145-32.904-59.464-40.92-91.945c-3.985-16.143-8.107-35.248-1.024-51.137c8.197-18.388,28.982-26.867,48.161-22.342
			c18.969,4.475,31.63,19.937,35.729,38.465c4.291,19.39,8.337,37.948,15.658,56.529c6.184,15.692,17.29,31.686,20.298,48.275
			C170.708,459.62,155.115,446.606,150.43,437.632z"/>
		<path class="st2" d="M596.843,564.755c35.033-19.665,63.954-48.706,89.219-79.574c13.029-15.919,25.016-32.762,35.466-50.488
			c6.937-11.768,14.921-24.932,16.761-38.768c2.07-15.557-7.335-39.401-26.461-38.669c-12.684,0.485-17.495,15.3-22.484,24.614
			c-18.213,34.005-38.607,67.149-61.524,98.198c-8.848,11.988-24.33,38.828-40.168,41.228
			c-19.169,2.904,11.495-30.274,14.978-34.709c25.381-32.327,46.236-68.589,65.575-104.756
			c6.573-12.295,12.023-28.351,23.685-36.942c15.497-11.418,36.225-6.935,49.476,5.647c26.946,25.587,15.264,60.88-0.358,88.56
			c-21.096,37.38-49.9,71.606-81.944,100.072c-15.584,13.844-32.189,26.664-50.517,36.703c-4.543,2.488-20.821,10.964-25.677,6.161
			C577.444,576.662,592.535,567.212,596.843,564.755z"/>
		<path class="st2" d="M672.298,711.232c7.105-33.278,0.955-72.556-20.076-99.827c-8.044-10.431-18.085-19.253-29.527-25.784
			c-5.614-3.204-17.951-5.966-14.643-15.092c3.351-9.243,13.207-3.452,19.179-0.765c29.907,13.46,51.234,38.541,60.386,70.065
			c5.015,17.274,6.087,35.539,3.941,53.362c-0.769,6.392-1.249,18.872-5.57,23.761C681.133,722.444,670.972,719.605,672.298,711.232
			z"/>
		<path class="st2" d="M215.231,105.816c0.255,7.398-7.057,6.924-12.187,5.437c-7.866-2.278-13.538-8.7-17.505-15.58
			c-4.948-8.583-6.821-17.82-3.909-27.395c2.698-8.873,12.46-14.906,14.867-22.949c0.228-0.758-30.317,2.291-33.104,2.708
			c-5.998,0.899-19.349,5.064-21.754-3.772c-2.547-9.355,9.615-9.575,15.263-9.709c13.498-0.319,26.685-0.974,40.154-1.876
			c7.873-0.526,20.6-0.065,15.604,11.6c-3.218,7.512-12.232,12.795-16.756,19.544c-5.874,8.762-6.341,19.91,1.641,27.832
			C202.709,96.78,214.832,96.917,215.231,105.816z M221.312,68.349c2.619,4.584,3.944,13.913-4.136,12.043
			c-4.471-1.035-8.196-11.062-9.497-14.63c-1.731-4.743-3.538-12.892,4.632-11.644C218.033,54.992,219.608,64.09,221.312,68.349z
			 M238.098,64.579c2.425,4.663,4.221,14.672-4.5,12.042c-4.117-1.242-8.109-10.878-9.325-14.344
			c-1.662-4.735-3.028-13.037,4.824-11.931C234.872,51.162,236.095,60.46,238.098,64.579z"/>
		<path class="st2" d="M280.178,110.801c-11.539-8.479-2.872-20.819,8.749-11.989c4.848,3.684,7.532,8.339,13.755,10.042
			c5.801,1.588,11.64-1.405,17.221-0.049c14.53,3.529,4.942,15.829-6.456,14.878C302.136,122.738,289.036,117.889,280.178,110.801z
			 M282.855,37.939c5.202-0.726,10.467-0.366,15.691-0.73c-0.36-5.281-0.934-14.942,5.881-16.297
			c8.291-1.649,9.24,8.579,8.837,14.35c4.279-0.835,37.677-7.919,25.685,7.774c-5.163,6.756-18.84,3.914-26.05,4.269
			c0.27,2.52,0.406,12.163,3.802,13.457c3.635,1.385,10.514-5.57,15.66-3.726c4.428,1.586,6.607,6.095,4.48,10.352
			c-2.58,5.163-10.061,5.066-14.941,5.462c2.787,7.199,0.64,19.037-9.002,12.772c-6.212-4.037-2.633-9.255-9.609-9.07
			c-5.245,0.139-25.961,9.827-21.416-5.333c2.607-8.694,15.248-6.22,22.024-7.37c-0.863-4.934-1.968-9.827-3.041-14.719
			c-6.215,1.524-18.858,7.247-24.611,1.132C271.461,45.175,276.778,38.527,282.855,37.939z"/>
		<path class="st2" d="M442.803,43.171c-5.517,0-19.849-3.225-24.441-0.708c-4.056,2.225-3.131,6.67-3.494,11.875
			c-1.262,18.093,4.169,34.742,4.992,52.465c0.225,4.857-0.515,13.786-7.6,12.821c-6.988-0.951-7.65-12.372-8.137-17.46
			c-1.853-19.355-1.946-39.196-1.946-58.628c-6.464,0.451-23.909,5.378-27.368-3.042c-4.676-11.382,12.94-10.295,18.656-10.004
			c13.673,0.696,5.292-2.351,11.661-11.21c8.419-11.709,13.173,3.855,12.5,11.484c6.947-0.485,23.826-6.334,30.088-0.844
			C452.775,34.357,449.59,42.867,442.803,43.171z M477.349,55.213c11.195-0.729,8.831,13.085-0.199,15.182
			c-4.802,1.114-10.752-0.605-15.709-0.166c-5.513,0.488-11.752,3.446-17.258,2.684c-10.809-1.497-10.365-13.517,0.375-14.768
			c4.81-0.56,9.975,0.902,14.925,0.48C465.572,58.106,471.296,55.747,477.349,55.213z M486.716,100.949
			c1.272,10.813-12.746,7.287-18.947,6.41c-6.318-0.894-19.647,0.932-23.942-4.409c-3.084-3.837-1.961-9.055,2.505-11.463
			c5.499-2.967,10.854,2.036,16.194,3.126C469.63,96.061,485.489,89.665,486.716,100.949z"/>
		<path class="st2" d="M556.53,105.816c-3.592,10.498-19.576,8.047-16.421-3.393C542.824,92.572,559.647,95.427,556.53,105.816z
			 M556.53,31.128c12.277,1.659,7.088,16.02,5.109,23.376c-1.526,5.669-1.902,33.988-11.557,32.942
			c-9.651-1.045-4.049-26.857-3.972-32.409C546.22,47.133,543.676,30.086,556.53,31.128z"/>
	</g>
</g>
</svg>
